<svg xmlns="http://www.w3.org/2000/svg" xmlns:xlink="http://www.w3.org/1999/xlink" viewBox="0 0 265.12 343.96"><defs><style>.cls-1,.cls-10{fill:none;}.cls-1{clip-rule:evenodd;}.cls-10,.cls-2,.cls-4,.cls-5,.cls-6,.cls-7,.cls-8{fill-rule:evenodd;}.cls-2{fill:url(#linear-gradient);}.cls-3{clip-path:url(#clip-path);}.cls-11,.cls-4{fill:#262262;}.cls-5,.cls-8{fill:#fff;}.cls-12,.cls-6{fill:#ed1c24;}.cls-7{fill:url(#linear-gradient-2);}.cls-8{opacity:0.6;}.cls-9{clip-path:url(#clip-path-2);}</style><linearGradient id="linear-gradient" x1="139.95" y1="159.84" x2="253.77" y2="159.84" gradientUnits="userSpaceOnUse"><stop offset="0" stop-color="#231f20"/><stop offset="1"/></linearGradient><clipPath id="clip-path" transform="translate(-9.31 -10.27)"><path id="mask" class="cls-1" d="M174.08,52.54s23.38,3.63,46.23,20.71C250.7,96,253.25,124,253.25,124s-27.1,13-49.42,17.8-29.75,4-29.75,4Z"/></clipPath><linearGradient id="linear-gradient-2" x1="225.72" y1="75.72" x2="162.97" y2="138.47" gradientUnits="userSpaceOnUse"><stop offset="0" stop-color="#fff"/><stop offset="0.07" stop-color="#fff" stop-opacity="0.85"/><stop offset="0.19" stop-color="#fff" stop-opacity="0.6"/><stop offset="0.31" stop-color="#fff" stop-opacity="0.38"/><stop offset="0.42" stop-color="#fff" stop-opacity="0.22"/><stop offset="0.52" stop-color="#fff" stop-opacity="0.1"/><stop offset="0.61" stop-color="#fff" stop-opacity="0.03"/><stop offset="0.67" stop-color="#fff" stop-opacity="0"/></linearGradient><clipPath id="clip-path-2" transform="translate(-9.31 -10.27)"><path class="cls-1" d="M140,10.31S70.65,5.78,29.47,66.58C-26.45,149.14,65.8,285.27,65.8,285.27S-3.94,135.47,54.71,72.35C91.66,32.59,140,35.81,140,35.81Z"/></clipPath></defs><title>lb-lid</title><g id="visor"><path class="cls-2" d="M140,48.64V271s25.84-5.65,59.74-23.41,39.55-24.22,39.55-24.22L253.77,133S230.36,145.11,207,151.57a215.88,215.88,0,0,1-43.59,7.26L162.7,50.26s-7.36-1.26-10.34-1.38C147.47,48.68,140,48.64,140,48.64Z" transform="translate(-9.31 -10.27)"/></g><g id="Layer_11" data-name="Layer 11"><g class="cls-3"><path class="cls-4" d="M173,49.7s24.42,3.8,48.27,21.64c31.74,23.74,34.41,53,34.41,53s-28.3,13.59-51.61,18.59S173,147.06,173,147.06Z" transform="translate(-9.31 -10.27)"/><path id="white" class="cls-5" d="M211.84,66.31,240.4,87.79s7.57,4.77-8.92,25.72c-17.71,22.51-59.55,61.31-59.55,61.31l-28.57-21.48s42.4-39.5,60.34-62.31C219.9,70.44,211.84,66.31,211.84,66.31Z" transform="translate(-9.31 -10.27)"/><path id="red" class="cls-6" d="M225.26,75.59l12.6,9.91s7.56,4.77-8.92,25.72c-17.71,22.51-59.56,61.31-59.56,61.31l-12.6-9.91s42.4-39.5,60.34-62.31C233.33,79.72,225.26,75.59,225.26,75.59Z" transform="translate(-9.31 -10.27)"/><path class="cls-7" d="M172.32,50.47s24.42,3.79,48.28,21.64c31.74,23.73,34.4,53,34.4,53s-28.3,13.59-51.6,18.58-31.08,4.17-31.08,4.17Z" transform="translate(-9.31 -10.27)"/></g></g><g id="helm_edge" data-name="helm edge"><path class="cls-4" d="M140,34.81s61.28-2.22,97.46,37.54c57.42,63.12-6.86,190.92-6.86,190.92s79.36-113.13,24.61-195.69C214.84,6.78,140,10.31,140,10.31Z" transform="translate(-9.31 -10.27)"/><path class="cls-8" d="M140,34.81s61.28-2.22,97.46,37.54c57.42,63.12-6.86,190.92-6.86,190.92s79.36-113.13,24.61-195.69C214.84,6.78,140,10.31,140,10.31Z" transform="translate(-9.31 -10.27)"/></g><g id="Layer_10" data-name="Layer 10"><g class="cls-9"><path id="bg" class="cls-10" d="M28.74,74.58C-26,157.14,62.35,290.27,62.35,290.27S-5.93,140.47,51.49,77.35C87.67,37.59,135,40.81,135,40.81V15.31S69.06,13.78,28.74,74.58Z" transform="translate(-9.31 -10.27)"/><path class="cls-11" d="M39.59,214.25l-10.35,2.62-.65-2.55,8.09-2-1.1-4.35,2.27-.57Z" transform="translate(-9.31 -10.27)"/><path class="cls-11" d="M32.75,198.9a3.65,3.65,0,0,1,2,.58,4.47,4.47,0,0,1,2.06,3,4.64,4.64,0,0,1,.08,1.91,4.72,4.72,0,0,1-.66,1.69,3.67,3.67,0,0,1-1.59,1.39,16.49,16.49,0,0,1-2.83.85,15.52,15.52,0,0,1-2.91.43,3.57,3.57,0,0,1-2-.58,4.62,4.62,0,0,1-1.32-1.24,5,5,0,0,1-.75-1.76,5.06,5.06,0,0,1-.08-1.92,4.81,4.81,0,0,1,.67-1.68A3.55,3.55,0,0,1,27,200.19a14.72,14.72,0,0,1,2.82-.85A15.78,15.78,0,0,1,32.75,198.9Zm-3.56,3.66a6.89,6.89,0,0,0-.8.26,1.92,1.92,0,0,0-.44.24,1.33,1.33,0,0,0-.27.26,1.18,1.18,0,0,0-.27.56,1.6,1.6,0,0,0,0,.72,1.71,1.71,0,0,0,.29.64,1.24,1.24,0,0,0,.49.4,1.12,1.12,0,0,0,.35.12,1.92,1.92,0,0,0,.5,0,7.21,7.21,0,0,0,.83-.1c.35-.05.78-.14,1.32-.26s.95-.22,1.28-.32a7.31,7.31,0,0,0,.79-.26,2.16,2.16,0,0,0,.44-.23,2.27,2.27,0,0,0,.28-.26,1.67,1.67,0,0,0,.27-.57,1.7,1.7,0,0,0,0-.71,1.63,1.63,0,0,0-.3-.65,1.52,1.52,0,0,0-.49-.4,2.53,2.53,0,0,0-.36-.12,2.38,2.38,0,0,0-.49,0c-.21,0-.49.05-.83.1s-.78.14-1.31.26S29.52,202.46,29.19,202.56Z" transform="translate(-9.31 -10.27)"/><path class="cls-11" d="M34,188.92l-6.21,5.78,7-1.29.63,3.44-14,2.57-.55-3,6.22-5.78-7,1.29-.63-3.44,14-2.57Z" transform="translate(-9.31 -10.27)"/><path class="cls-11" d="M26.41,174A8.79,8.79,0,0,1,28,174a4.71,4.71,0,0,1,1.32.3,4.59,4.59,0,0,1,1.21.68,4.77,4.77,0,0,1,1.33,1.61,7,7,0,0,1,.66,2.19l.74,5.5-14.82,2-.74-5.5a6.92,6.92,0,0,1,.06-2.28,4.44,4.44,0,0,1,.86-1.91,5,5,0,0,1,1-1,5.29,5.29,0,0,1,1.2-.64,10.53,10.53,0,0,1,1.48-.4c.55-.1,1.24-.21,2.09-.32S25.85,174,26.41,174Zm-3.13,4.11c-.38.06-.68.13-.9.18a2.63,2.63,0,0,0-.51.19,1.42,1.42,0,0,0-.34.25,1.85,1.85,0,0,0-.52.77,2.36,2.36,0,0,0-.08,1.09l.22,1.6,8.33-1.12-.22-1.6a2.31,2.31,0,0,0-.36-1,1.91,1.91,0,0,0-.71-.61,1.37,1.37,0,0,0-.38-.15,2,2,0,0,0-.53,0q-.34,0-.93.06l-1.54.18C24.17,178,23.66,178,23.28,178.1Z" transform="translate(-9.31 -10.27)"/><path class="cls-11" d="M26.48,160.62a4.86,4.86,0,0,1,2.6,1.17,6.33,6.33,0,0,1,1.54,1.91,6.57,6.57,0,0,1,.65,2.51,6.68,6.68,0,0,1-.25,2.58,6.36,6.36,0,0,1-1.22,2.13,4.9,4.9,0,0,1-2.39,1.56,21.7,21.7,0,0,1-3.95.59,20.5,20.5,0,0,1-4,0,4.86,4.86,0,0,1-2.6-1.17A6.18,6.18,0,0,1,15.33,170a6.76,6.76,0,0,1-.66-2.51,6.67,6.67,0,0,1,.26-2.58,6.36,6.36,0,0,1,1.22-2.13,4.9,4.9,0,0,1,2.39-1.56,21.56,21.56,0,0,1,3.95-.59A20.51,20.51,0,0,1,26.48,160.62ZM21,164.83a7.91,7.91,0,0,0-1.11.21,2.85,2.85,0,0,0-.64.23,2,2,0,0,0-.42.3,1.64,1.64,0,0,0-.46.69,2.22,2.22,0,0,0-.12,1,2.3,2.3,0,0,0,.27.93,1.8,1.8,0,0,0,.57.62,1.91,1.91,0,0,0,.45.23,2.44,2.44,0,0,0,.66.12c.28,0,.65,0,1.13,0s1.08,0,1.82-.1,1.32-.12,1.78-.18.82-.14,1.1-.21a2.34,2.34,0,0,0,.64-.22,2,2,0,0,0,.42-.3,1.84,1.84,0,0,0,.47-.7,2.16,2.16,0,0,0,.14-1,2.07,2.07,0,0,0-.28-.92,2,2,0,0,0-.58-.63,2.82,2.82,0,0,0-.46-.23,3.63,3.63,0,0,0-.65-.12c-.28,0-.66,0-1.13,0s-1.07,0-1.8.1S21.47,164.77,21,164.83Z" transform="translate(-9.31 -10.27)"/><path class="cls-11" d="M30.5,147.64l-9.65,6.17,9.66,0v4.73l-19.22,0v-4.13l9.65-6.18-9.66,0v-4.72l19.22-.05Z" transform="translate(-9.31 -10.27)"/><path class="cls-12" d="M30.32,127.15a7,7,0,0,1,1.18,4.95l-.94,9.25L9.31,139.21l.89-8.81a7,7,0,0,1,2.18-4.85,5.9,5.9,0,0,1,4.65-1.3,4.36,4.36,0,0,1,2.54,1A6.6,6.6,0,0,1,21,127c.24-.3.47-.57.7-.82a4.36,4.36,0,0,1,.94-.72,4.92,4.92,0,0,1,1.39-.54,6,6,0,0,1,1.87-.08A5.91,5.91,0,0,1,30.32,127.15ZM15.5,129.82a1.82,1.82,0,0,0-.65,1.38l-.33,3.26,3.47.34.32-3.25a1.79,1.79,0,0,0-.36-1.48,1.73,1.73,0,0,0-1.18-.57A1.81,1.81,0,0,0,15.5,129.82Zm8.21.54a1.8,1.8,0,0,0-.68,1.39l-.36,3.53,3.73.37.36-3.52a1.79,1.79,0,0,0-.41-1.5,2.12,2.12,0,0,0-2.64-.27Z" transform="translate(-9.31 -10.27)"/><path class="cls-12" d="M32.65,123.77l-22.37-4.31,1.06-5.5,22.37,4.32Z" transform="translate(-9.31 -10.27)"/><path class="cls-12" d="M38,102.87l-11.14,2.34,1.62,2.65,7.23,2.28L34,115.75l-23.09-7.27,1.76-5.61,8.18,2.57-6.07-9.25,2.18-6.94,6.86,10.82L40.1,96.26Z" transform="translate(-9.31 -10.27)"/><path class="cls-12" d="M40.38,96.52l-21.58-11,7.46-14.67L31,73.28l-4.77,9.37,3.61,1.83,4.07-8,4.73,2.41-4.07,8,3.79,1.92,4.76-9.36,4.73,2.4Z" transform="translate(-9.31 -10.27)"/><path class="cls-12" d="M56.1,70.9l-9.76-2.05-1.22,1.59,7.17,5.47-3.61,4.73L29.43,66l5.81-7.63a9.54,9.54,0,0,1,2.63-2.4,7.34,7.34,0,0,1,3-1,7.63,7.63,0,0,1,3,.25,8.21,8.21,0,0,1,2.64,1.33,6.68,6.68,0,0,1,2.41,3.27,7.47,7.47,0,0,1,.23,3.71l11.21,2ZM41.05,60.73a2.48,2.48,0,0,0-1.73,1.06l-2,2.67,3.89,3,2-2.67a2.52,2.52,0,0,0,.56-2,2.47,2.47,0,0,0-2.73-2.08Z" transform="translate(-9.31 -10.27)"/><path class="cls-12" d="M69.45,51.89a6.71,6.71,0,0,1,.1,3.12,9.38,9.38,0,0,1-1.24,3.1,12.65,12.65,0,0,1-2.37,2.8,17.47,17.47,0,0,1-4.35,3,9.42,9.42,0,0,1-4.62.78l.3-5.38a5.16,5.16,0,0,0,2.59-.59,11.15,11.15,0,0,0,2.57-1.75Q65,54.63,63.56,53a2,2,0,0,0-1.31-.75,2.63,2.63,0,0,0-1.62.59l-1.2.8-1.25.84a8.32,8.32,0,0,1-5,1.65,6.73,6.73,0,0,1-4.49-2.51,7.1,7.1,0,0,1-1.89-5.7A9.31,9.31,0,0,1,50.12,42,14.23,14.23,0,0,1,54,39.45a9,9,0,0,1,4.1-.71L57.84,44a4.24,4.24,0,0,0-2.28.47A11.81,11.81,0,0,0,53.47,46a3.15,3.15,0,0,0-1.17,2,2.05,2.05,0,0,0,.49,1.67,1.49,1.49,0,0,0,1.1.51,2.8,2.8,0,0,0,1.72-.57l1.1-.76,1.35-.89a8.06,8.06,0,0,1,4.88-1.68A7.1,7.1,0,0,1,67.82,49,7.19,7.19,0,0,1,69.45,51.89Z" transform="translate(-9.31 -10.27)"/><path class="cls-12" d="M73.73,54.25,70.3,49.18l5.07-3.43,3.43,5.06Z" transform="translate(-9.31 -10.27)"/><path class="cls-11" d="M92.45,41.56A9.37,9.37,0,0,1,87.91,46a9.71,9.71,0,0,1-3.64,1,9.21,9.21,0,0,1-3.6-.5,7.18,7.18,0,0,1-3.46-2.43,31.33,31.33,0,0,1-3-5.09A31.5,31.5,0,0,1,72,33.6a7.17,7.17,0,0,1,.17-4.22A9.11,9.11,0,0,1,74,26.22,9.77,9.77,0,0,1,77,24a9.4,9.4,0,0,1,6.32-.88A9.22,9.22,0,0,1,88.74,27l-5.43,2.68a4.2,4.2,0,0,0-1.77-1.23,3.27,3.27,0,0,0-3.8,2.24,3.29,3.29,0,0,0-.06.77,5.48,5.48,0,0,0,.19,1,14.17,14.17,0,0,0,.57,1.6c.28.66.65,1.47,1.13,2.42s.88,1.74,1.23,2.35a15.19,15.19,0,0,0,.91,1.42,5.2,5.2,0,0,0,.68.77,2.76,2.76,0,0,0,3.2.3,2.84,2.84,0,0,0,1.54-1.54,4.25,4.25,0,0,0,.09-2.15l5.43-2.68A9.16,9.16,0,0,1,92.45,41.56Z" transform="translate(-9.31 -10.27)"/><path class="cls-11" d="M111.38,31.12a7.14,7.14,0,0,1-.95,4.12A9.27,9.27,0,0,1,108.11,38a10.82,10.82,0,0,1-7.27,2.05,9.37,9.37,0,0,1-3.43-1.16,7,7,0,0,1-3-3,31.26,31.26,0,0,1-2-5.54,31.81,31.81,0,0,1-1.18-5.78,7.21,7.21,0,0,1,.94-4.12,9.44,9.44,0,0,1,2.33-2.77A9.75,9.75,0,0,1,98,16a9.92,9.92,0,0,1,3.82-.37,9.37,9.37,0,0,1,3.43,1.16,7.1,7.1,0,0,1,3,3,31.37,31.37,0,0,1,2,5.54A32,32,0,0,1,111.38,31.12Zm-7.69-6.72a13.12,13.12,0,0,0-.61-1.56,4.52,4.52,0,0,0-.53-.86,3,3,0,0,0-.55-.51,2.37,2.37,0,0,0-1.14-.48,3.37,3.37,0,0,0-1.43.11,3.25,3.25,0,0,0-1.27.65,2.64,2.64,0,0,0-.74,1,3.23,3.23,0,0,0-.2.72,4.12,4.12,0,0,0,0,1c0,.41.14,1,.29,1.65s.37,1.56.66,2.6.56,1.9.79,2.54a16.47,16.47,0,0,0,.61,1.54,3.9,3.9,0,0,0,.5.86,3.09,3.09,0,0,0,.56.52,2.69,2.69,0,0,0,1.16.48,3,3,0,0,0,1.42-.08,3.05,3.05,0,0,0,1.26-.67,3,3,0,0,0,.74-1,3.76,3.76,0,0,0,.2-.73,4,4,0,0,0,0-1c0-.41-.14-1-.29-1.64s-.36-1.54-.65-2.58S103.91,25.06,103.69,24.4Z" transform="translate(-9.31 -10.27)"/><path class="cls-11" d="M131.34,35.27l-.93-11.56L127.47,30l-3.8.31-3.9-5.69.93,11.55-5.93.48-1.94-24.13,5.83-.47,6.28,10.21,4.57-11.08,5.83-.47,1.93,24.13Z" transform="translate(-9.31 -10.27)"/></g></g><g id="B"><path class="cls-11" d="M183.33,322c-5,5.92-9.1,10.82-13.5,14-9.48,7-19.53,12.65-29.88,18.21V280.47a252.15,252.15,0,0,0,49.71-18c10.78-5.22,16.49-5.81,18.94-2.87s2,8.43-.22,15.21a34.66,34.66,0,0,1-5.17,10.06c-2.22,3-6.6,7.49-6.6,7.49s1.19.35,1.62.64a2.3,2.3,0,0,1,.84,1.63,8.46,8.46,0,0,1-.42,3.43,30.19,30.19,0,0,1-2.42,5.62A108.72,108.72,0,0,1,183.33,322Zm7.4-40.31c-.94-.54-2.86-.08-5.89,1.43-6,3-9.27,4.56-16.08,7.49-.55,4.74-.84,6.74-1.48,10.58,6.31-2.71,9.3-4.13,14.79-6.84a20.59,20.59,0,0,0,6.34-4.52,13.08,13.08,0,0,0,3-4.89C191.87,283.34,191.68,282.23,190.73,281.69ZM183,306.4c-.56-.57-2-.27-4.33.87-5,2.46-7.79,3.76-13.77,6.34-.83,4-1.27,6-2.21,10.91,5.23-2.44,7.55-3.61,11.85-5.84a15.8,15.8,0,0,0,5-4.06,20.54,20.54,0,0,0,3.18-4.94C183.46,308.07,183.57,307,183,306.4Z" transform="translate(-9.31 -10.27)"/></g></svg>