<?xml version="1.0" encoding="UTF-8"?>
<!DOCTYPE svg PUBLIC "-//W3C//DTD SVG 1.1//EN" "http://www.w3.org/Graphics/SVG/1.1/DTD/svg11.dtd">
<svg xmlns="http://www.w3.org/2000/svg" version="1.1" width="608px" height="608px" style="shape-rendering:geometricPrecision; text-rendering:geometricPrecision; image-rendering:optimizeQuality; fill-rule:evenodd; clip-rule:evenodd" xmlns:xlink="http://www.w3.org/1999/xlink">
<g><path style="opacity:0.995" fill="#000000" d="M 276.5,1.5 C 383.696,-4.46391 471.863,33.2028 541,114.5C 604.215,198.25 621.882,290.917 594,392.5C 564.859,482.309 507.025,546.142 420.5,584C 364.616,606.765 306.949,612.765 247.5,602C 144.402,579.723 70.5683,520.889 26,425.5C -2.24202,356.914 -6.24202,286.914 14,215.5C 43.1415,125.691 100.975,61.8576 187.5,24C 216.222,12.2364 245.889,4.73638 276.5,1.5 Z"/></g>
<g><path style="opacity:1" fill="#f7f6f6" d="M 212.5,87.5 C 212.5,81.1667 212.5,74.8333 212.5,68.5C 232.978,59.8805 254.311,55.0472 276.5,54C 269.463,62.7048 261.463,70.3714 252.5,77C 237.503,74.7585 224.169,78.2585 212.5,87.5 Z"/></g>
<g><path style="opacity:1" fill="#f7f7f7" d="M 388.5,66.5 C 388.24,73.557 388.573,80.557 389.5,87.5C 384.788,83.6505 379.455,80.8172 373.5,79C 365.551,77.8445 357.551,77.1778 349.5,77C 340.233,69.7359 331.566,61.7359 323.5,53C 345.955,53.8783 367.622,58.3783 388.5,66.5 Z"/></g>
<g><path style="opacity:1" fill="#e91f25" d="M 388.5,66.5 C 408.206,73.0195 426.539,82.1862 443.5,94C 437.747,102.841 431.747,111.508 425.5,120C 416.131,126.018 406.464,131.518 396.5,136.5C 395.833,129.833 395.167,123.167 394.5,116.5C 394.449,106.526 392.782,96.8591 389.5,87.5C 388.573,80.557 388.24,73.557 388.5,66.5 Z"/></g>
<g><path style="opacity:1" fill="#e91d24" d="M 212.5,68.5 C 212.5,74.8333 212.5,81.1667 212.5,87.5C 210.225,92.9327 208.725,98.5994 208,104.5C 207.056,115.154 206.223,125.821 205.5,136.5C 193.747,131.213 182.913,124.546 173,116.5C 169.031,109.7 164.865,103.034 160.5,96.5C 176.649,85.0902 193.982,75.7569 212.5,68.5 Z"/></g>
<g><path style="opacity:1" fill="#e91e25" d="M 486.5,130.5 C 469.458,140.681 452.791,151.348 436.5,162.5C 422.885,158.513 409.218,154.679 395.5,151C 409.169,142.163 423.169,133.83 437.5,126C 447.366,123.914 457.366,122.914 467.5,123C 469.94,121.697 472.44,120.53 475,119.5C 479.323,122.656 483.156,126.323 486.5,130.5 Z"/></g>
<g><path style="opacity:1" fill="#e91e25" d="M 159.5,163.5 C 144.816,154.473 130.149,145.473 115.5,136.5C 119.47,130.696 124.304,125.696 130,121.5C 140.108,122.984 150.275,124.15 160.5,125C 176.742,132.12 192.076,140.786 206.5,151C 190.702,154.725 175.036,158.892 159.5,163.5 Z"/></g>
<g><path style="opacity:1" fill="#511614" d="M 394.5,116.5 C 395.167,123.167 395.833,129.833 396.5,136.5C 396.44,137.043 396.107,137.376 395.5,137.5C 394.503,130.532 394.17,123.532 394.5,116.5 Z"/></g>
<g><path style="opacity:1" fill="#fdfdfd" d="M 486.5,130.5 C 502.377,146.733 515.71,164.9 526.5,185C 503.833,185.667 481.167,185.667 458.5,185C 455.539,179.578 452.706,174.078 450,168.5C 445.779,165.818 441.279,163.818 436.5,162.5C 452.791,151.348 469.458,140.681 486.5,130.5 Z"/></g>
<g><path style="opacity:1" fill="#fdfdfc" d="M 115.5,136.5 C 130.149,145.473 144.816,154.473 159.5,163.5C 156.47,165.109 153.637,167.109 151,169.5C 148.916,175.339 146.083,180.673 142.5,185.5C 121.993,185.83 101.66,185.497 81.5,184.5C 90.8798,167.058 102.213,151.058 115.5,136.5 Z"/></g>
<g><path style="opacity:1" fill="#f1f0f0" d="M 441.5,184.5 C 434.352,185.492 427.019,185.825 419.5,185.5C 415.589,185.253 412.256,183.753 409.5,181C 415.5,180.333 421.5,180.333 427.5,181C 432.166,182.232 436.833,183.399 441.5,184.5 Z"/></g>
<g><path style="opacity:1" fill="#f1f0f0" d="M 184.5,185.5 C 176.316,185.826 168.316,185.492 160.5,184.5C 169.855,180.727 179.522,179.727 189.5,181.5C 188.395,183.611 186.729,184.945 184.5,185.5 Z"/></g>
<g><path style="opacity:1" fill="#5b5959" d="M 81.5,184.5 C 101.66,185.497 121.993,185.83 142.5,185.5C 121.996,186.828 101.329,186.828 80.5,185.5C 80.6236,184.893 80.9569,184.56 81.5,184.5 Z"/></g>
<g><path style="opacity:1" fill="#605e5e" d="M 160.5,184.5 C 168.316,185.492 176.316,185.826 184.5,185.5C 176.324,186.821 167.991,186.821 159.5,185.5C 159.624,184.893 159.957,184.56 160.5,184.5 Z"/></g>
<g><path style="opacity:1" fill="#646363" d="M 441.5,184.5 C 442.043,184.56 442.376,184.893 442.5,185.5C 434.677,186.82 427.01,186.82 419.5,185.5C 427.019,185.825 434.352,185.492 441.5,184.5 Z"/></g>
<g><path style="opacity:1" fill="#fafafa" d="M 533.5,238.5 C 554.034,236.185 567.534,244.851 574,264.5C 574.781,265.944 574.614,267.277 573.5,268.5C 567.878,270.375 562.212,272.041 556.5,273.5C 555.584,266.496 552.251,260.996 546.5,257C 536.981,254.421 531.314,257.921 529.5,267.5C 530.121,271.866 531.621,275.866 534,279.5C 542.211,286.713 550.711,293.546 559.5,300C 575.157,312.466 579.324,327.966 572,346.5C 564.966,356.934 555.133,361.934 542.5,361.5C 529.867,361.934 520.034,356.934 513,346.5C 510.3,340.867 508.133,335.034 506.5,329C 511.796,326.174 517.463,324.007 523.5,322.5C 525.505,327.437 527.671,332.437 530,337.5C 534.929,343.118 541.095,344.951 548.5,343C 557.303,337.079 558.803,329.579 553,320.5C 541.333,310.167 529.667,299.833 518,289.5C 509.802,277.944 508.469,265.61 514,252.5C 519.005,245.649 525.505,240.982 533.5,238.5 Z"/></g>
<g><path style="opacity:1" fill="#e71c24" d="M 39.5,240.5 C 45.8333,240.5 52.1667,240.5 58.5,240.5C 58.5,274.5 58.5,308.5 58.5,342.5C 70.5,342.5 82.5,342.5 94.5,342.5C 94.5,348.167 94.5,353.833 94.5,359.5C 76.1667,359.5 57.8333,359.5 39.5,359.5C 39.5,319.833 39.5,280.167 39.5,240.5 Z"/></g>
<g><path style="opacity:1" fill="#e61c24" d="M 105.5,240.5 C 118.504,240.333 131.504,240.5 144.5,241C 158.441,243.941 166.608,252.441 169,266.5C 169.167,277.5 169.333,288.5 169.5,299.5C 169.616,312.212 169.116,324.878 168,337.5C 164.644,349.522 156.81,356.688 144.5,359C 131.504,359.5 118.504,359.667 105.5,359.5C 105.5,319.833 105.5,280.167 105.5,240.5 Z"/></g>
<g><path style="opacity:1" fill="#e81c24" d="M 232.5,311.5 C 232.783,312.289 233.283,312.956 234,313.5C 234.5,289.169 234.667,264.836 234.5,240.5C 240.167,240.5 245.833,240.5 251.5,240.5C 251.5,280.167 251.5,319.833 251.5,359.5C 245.794,359.829 240.128,359.495 234.5,358.5C 224.21,333.591 214.21,308.591 204.5,283.5C 204.217,282.711 203.717,282.044 203,281.5C 202.5,307.498 202.333,333.498 202.5,359.5C 196.833,359.5 191.167,359.5 185.5,359.5C 185.5,319.833 185.5,280.167 185.5,240.5C 192.09,240.189 198.59,240.522 205,241.5C 214.463,264.753 223.63,288.087 232.5,311.5 Z"/></g>
<g><path style="opacity:1" fill="#960e14" d="M 234.5,240.5 C 234.667,264.836 234.5,289.169 234,313.5C 233.283,312.956 232.783,312.289 232.5,311.5C 233.167,287.833 233.833,264.167 234.5,240.5 Z"/></g>
<g><path style="opacity:1" fill="#fbfbfb" d="M 270.5,240.5 C 284.545,240.112 298.545,240.612 312.5,242C 328.967,248.085 335.801,259.918 333,277.5C 330.6,287.567 324.434,294.067 314.5,297C 329.013,301.007 336.013,310.507 335.5,325.5C 335.649,343.517 326.982,354.684 309.5,359C 296.504,359.5 283.504,359.667 270.5,359.5C 270.5,319.833 270.5,280.167 270.5,240.5 Z"/></g>
<g><path style="opacity:1" fill="#fbfbfb" d="M 369.5,240.5 C 369.333,256.837 369.5,273.17 370,289.5C 370.717,288.956 371.217,288.289 371.5,287.5C 379.427,271.815 387.76,256.315 396.5,241C 403.167,240.333 409.833,240.333 416.5,241C 408.293,255.249 399.959,269.416 391.5,283.5C 401.037,308.737 410.704,333.904 420.5,359C 413.476,359.831 406.476,359.664 399.5,358.5C 393.027,340.413 386.36,322.413 379.5,304.5C 376.468,309.035 373.635,313.702 371,318.5C 370.5,332.163 370.333,345.829 370.5,359.5C 364.167,359.5 357.833,359.5 351.5,359.5C 351.5,319.833 351.5,280.167 351.5,240.5C 357.5,240.5 363.5,240.5 369.5,240.5 Z"/></g>
<g><path style="opacity:1" fill="#a4a4a4" d="M 369.5,240.5 C 370.167,256.167 370.833,271.833 371.5,287.5C 371.217,288.289 370.717,288.956 370,289.5C 369.5,273.17 369.333,256.837 369.5,240.5 Z"/></g>
<g><path style="opacity:1" fill="#fbfbfb" d="M 433.5,240.5 C 447.892,240.07 462.226,240.57 476.5,242C 486.928,246.095 493.428,253.595 496,264.5C 497.851,275.768 496.184,286.435 491,296.5C 487.651,299.682 484.484,303.015 481.5,306.5C 486.874,324.12 492.54,341.62 498.5,359C 491.808,359.831 485.142,359.664 478.5,358.5C 473.091,342.609 468.091,326.609 463.5,310.5C 459.833,310.5 456.167,310.5 452.5,310.5C 452.5,326.833 452.5,343.167 452.5,359.5C 446.167,359.5 439.833,359.5 433.5,359.5C 433.5,319.833 433.5,280.167 433.5,240.5 Z"/></g>
<g><path style="opacity:1" fill="#000000" d="M 124.5,257.5 C 130.221,257.369 135.888,257.869 141.5,259C 146.728,261.949 149.561,266.449 150,272.5C 150.667,290.5 150.667,308.5 150,326.5C 149.93,333.499 146.763,338.332 140.5,341C 135.233,342.191 129.899,342.691 124.5,342.5C 124.5,314.167 124.5,285.833 124.5,257.5 Z"/></g>
<g><path style="opacity:1" fill="#020202" d="M 289.5,257.5 C 296.483,257.052 303.15,258.219 309.5,261C 315.763,268.527 315.763,276.194 309.5,284C 303.298,287.474 296.632,288.974 289.5,288.5C 289.5,278.167 289.5,267.833 289.5,257.5 Z"/></g>
<g><path style="opacity:1" fill="#020202" d="M 452.5,257.5 C 473.328,255.162 481.161,264.162 476,284.5C 475.117,287.102 473.617,289.269 471.5,291C 465.311,292.886 458.977,293.719 452.5,293.5C 452.5,281.5 452.5,269.5 452.5,257.5 Z"/></g>
<g><path style="opacity:1" fill="#950d13" d="M 204.5,283.5 C 203.833,308.833 203.167,334.167 202.5,359.5C 202.333,333.498 202.5,307.498 203,281.5C 203.717,282.044 204.217,282.711 204.5,283.5 Z"/></g>
<g><path style="opacity:1" fill="#020202" d="M 289.5,305.5 C 309.357,304.183 317.857,313.183 315,332.5C 313.5,336.667 310.667,339.5 306.5,341C 300.888,342.131 295.221,342.631 289.5,342.5C 289.5,330.167 289.5,317.833 289.5,305.5 Z"/></g>
<g><path style="opacity:1" fill="#605857" d="M 225.5,415.5 C 221.167,415.5 216.833,415.5 212.5,415.5C 206.167,415.5 199.833,415.5 193.5,415.5C 154.996,415.168 116.663,415.501 78.5,416.5C 77.9569,416.44 77.6236,416.107 77.5,415.5C 126.998,414.169 176.332,414.169 225.5,415.5 Z"/></g>
<g><path style="opacity:1" fill="#5d5655" d="M 389.5,415.5 C 436.335,414.169 483.335,414.169 530.5,415.5C 530.376,416.107 530.043,416.44 529.5,416.5C 486.337,415.501 443.003,415.168 399.5,415.5C 396.167,415.5 392.833,415.5 389.5,415.5 Z"/></g>
<g><path style="opacity:1" fill="#fefdfd" d="M 193.5,415.5 C 166.175,432.497 138.841,449.497 111.5,466.5C 98.1506,451.465 87.1506,434.798 78.5,416.5C 116.663,415.501 154.996,415.168 193.5,415.5 Z"/></g>
<g><path style="opacity:1" fill="#fbf8f7" d="M 212.5,415.5 C 216.833,415.5 221.167,415.5 225.5,415.5C 225.272,435.426 227.438,455.092 232,474.5C 232.748,493.644 234.748,512.644 238,531.5C 239.214,533.049 240.714,534.215 242.5,535C 247.5,536 252.5,537 257.5,538C 258.31,541.931 258.976,545.931 259.5,550C 259.167,550.833 258.833,551.667 258.5,552.5C 242.591,549.362 227.257,544.695 212.5,538.5C 212.5,497.5 212.5,456.5 212.5,415.5 Z"/></g>
<g><path style="opacity:1" fill="#fcf7f6" d="M 389.5,415.5 C 389.5,457.167 389.5,498.833 389.5,540.5C 374.545,546.823 358.878,550.823 342.5,552.5C 342.671,547.804 343.171,543.137 344,538.5C 350.256,537.047 356.422,535.213 362.5,533C 363.525,530.929 364.358,528.762 365,526.5C 367.105,511.235 368.439,495.901 369,480.5C 370.032,471.041 371.699,461.708 374,452.5C 375.087,440.18 375.921,427.847 376.5,415.5C 380.833,415.5 385.167,415.5 389.5,415.5 Z"/></g>
<g><path style="opacity:1" fill="#fefdfd" d="M 399.5,415.5 C 443.003,415.168 486.337,415.501 529.5,416.5C 519.444,437.3 506.444,455.966 490.5,472.5C 459.962,453.736 429.629,434.736 399.5,415.5 Z"/></g>
<g><path style="opacity:1" fill="#e91c24" d="M 193.5,415.5 C 199.833,415.5 206.167,415.5 212.5,415.5C 212.5,456.5 212.5,497.5 212.5,538.5C 172.671,523.091 139.004,499.091 111.5,466.5C 138.841,449.497 166.175,432.497 193.5,415.5 Z"/></g>
<g><path style="opacity:1" fill="#e91c24" d="M 389.5,415.5 C 392.833,415.5 396.167,415.5 399.5,415.5C 429.629,434.736 459.962,453.736 490.5,472.5C 462.824,503.854 429.157,526.521 389.5,540.5C 389.5,498.833 389.5,457.167 389.5,415.5 Z"/></g>
</svg>
