<?xml version="1.0" encoding="UTF-8"?>
<!DOCTYPE svg PUBLIC "-//W3C//DTD SVG 1.1//EN" "http://www.w3.org/Graphics/SVG/1.1/DTD/svg11.dtd">
<svg xmlns="http://www.w3.org/2000/svg" version="1.1" width="1215px" height="1215px" style="shape-rendering:geometricPrecision; text-rendering:geometricPrecision; image-rendering:optimizeQuality; fill-rule:evenodd; clip-rule:evenodd" xmlns:xlink="http://www.w3.org/1999/xlink">
<g><path style="opacity:0.996" fill="#000000" d="M 573.5,4.5 C 743.222,-2.32701 891.222,50.173 1017.5,162C 1136.08,273.233 1201.25,410.4 1213,573.5C 1220.32,743.243 1167.99,891.243 1056,1017.5C 944.767,1136.08 807.6,1201.25 644.5,1213C 474.757,1220.32 326.757,1167.99 200.5,1056C 81.918,944.767 16.7513,807.6 5,644.5C -2.19674,479.409 47.4699,334.409 154,209.5C 266.176,85.4993 406.009,17.1659 573.5,4.5 Z"/></g>
<g><path style="opacity:1" fill="#fefefe" d="M 682.5,110.5 C 682.5,158.5 682.5,206.5 682.5,254.5C 632.513,243.834 582.513,243.834 532.5,254.5C 532.5,206.5 532.5,158.5 532.5,110.5C 555.491,106.217 578.824,104.217 602.5,104.5C 629.486,104.293 656.153,106.293 682.5,110.5 Z"/></g>
<g><path style="opacity:1" fill="#e91c24" d="M 532.5,110.5 C 532.5,158.5 532.5,206.5 532.5,254.5C 488.786,263.954 448.12,280.621 410.5,304.5C 377.167,270.5 343.5,236.833 309.5,203.5C 375.644,153.616 449.977,122.616 532.5,110.5 Z"/></g>
<g><path style="opacity:1" fill="#e91c24" d="M 682.5,110.5 C 752.529,120.752 817.529,144.586 877.5,182C 886.409,187.943 895.076,194.11 903.5,200.5C 869.167,234.167 835.167,268.167 801.5,302.5C 764.693,279.603 725.026,263.603 682.5,254.5C 682.5,206.5 682.5,158.5 682.5,110.5 Z"/></g>
<g><path style="opacity:1" fill="#fefdfd" d="M 903.5,200.5 C 942.952,228.78 977.785,262.113 1008,300.5C 1009.09,302.078 1009.93,303.745 1010.5,305.5C 976.86,339.806 942.86,373.806 908.5,407.5C 879.746,365.412 844.08,330.412 801.5,302.5C 835.167,268.167 869.167,234.167 903.5,200.5 Z"/></g>
<g><path style="opacity:1" fill="#fefdfd" d="M 309.5,203.5 C 343.5,236.833 377.167,270.5 410.5,304.5C 368.167,332.833 332.833,368.167 304.5,410.5C 270.5,377.167 236.833,343.5 203.5,309.5C 212.665,295.821 222.831,282.821 234,270.5C 254.664,248.161 276.831,227.661 300.5,209C 303.222,206.642 306.222,204.809 309.5,203.5 Z"/></g>
<g><path style="opacity:1" fill="#000000" d="M 682.5,254.5 C 725.026,263.603 764.693,279.603 801.5,302.5C 844.08,330.412 879.746,365.412 908.5,407.5C 933.615,445.823 950.948,487.49 960.5,532.5C 971.134,582.513 971.134,632.513 960.5,682.5C 951.045,726.216 934.378,766.883 910.5,804.5C 882.167,846.833 846.833,882.167 804.5,910.5C 766.856,934.315 726.19,950.981 682.5,960.5C 632.511,970.995 582.511,970.995 532.5,960.5C 487.49,950.948 445.823,933.615 407.5,908.5C 365.412,879.746 330.412,844.08 302.5,801.5C 279.603,764.693 263.603,725.026 254.5,682.5C 243.866,632.52 243.866,582.52 254.5,532.5C 263.954,488.786 280.621,448.12 304.5,410.5C 332.833,368.167 368.167,332.833 410.5,304.5C 448.12,280.621 488.786,263.954 532.5,254.5C 582.513,243.834 632.513,243.834 682.5,254.5 Z"/></g>
<g><path style="opacity:1" fill="#e91c24" d="M 1010.5,305.5 C 1049.11,355.05 1076.94,410.383 1094,471.5C 1099.77,491.495 1103.93,511.828 1106.5,532.5C 1057.83,532.5 1009.17,532.5 960.5,532.5C 950.948,487.49 933.615,445.823 908.5,407.5C 942.86,373.806 976.86,339.806 1010.5,305.5 Z"/></g>
<g><path style="opacity:1" fill="#e91c24" d="M 203.5,309.5 C 236.833,343.5 270.5,377.167 304.5,410.5C 280.621,448.12 263.954,488.786 254.5,532.5C 206.5,532.5 158.5,532.5 110.5,532.5C 122.616,449.977 153.616,375.644 203.5,309.5 Z"/></g>
<g><path style="opacity:1" fill="#292929" d="M 585.5,346.5 C 696.617,342.623 780.45,387.957 837,482.5C 875.009,556.437 878.675,632.103 848,709.5C 811.141,790.348 749.474,841.348 663,862.5C 562.346,881.024 477.68,852.69 409,777.5C 355.423,711.529 336.423,636.529 352,552.5C 373.329,465.849 424.496,404.016 505.5,367C 531.306,356.382 557.973,349.549 585.5,346.5 Z"/></g>
<g><path style="opacity:1" fill="#fefefe" d="M 110.5,532.5 C 158.5,532.5 206.5,532.5 254.5,532.5C 243.866,582.52 243.866,632.52 254.5,682.5C 206.5,682.5 158.5,682.5 110.5,682.5C 104.564,643.49 103.064,604.157 106,564.5C 106.746,553.585 108.246,542.918 110.5,532.5 Z"/></g>
<g><path style="opacity:1" fill="#fefefe" d="M 960.5,532.5 C 1009.17,532.5 1057.83,532.5 1106.5,532.5C 1110.78,555.491 1112.78,578.824 1112.5,602.5C 1112.71,629.486 1110.71,656.153 1106.5,682.5C 1057.83,682.5 1009.17,682.5 960.5,682.5C 971.134,632.513 971.134,582.513 960.5,532.5 Z"/></g>
<g><path style="opacity:1" fill="#e91c24" d="M 110.5,682.5 C 158.5,682.5 206.5,682.5 254.5,682.5C 263.603,725.026 279.603,764.693 302.5,801.5C 268.167,835.167 234.167,869.167 200.5,903.5C 182.847,880.228 167.68,855.228 155,828.5C 132.696,782.184 117.863,733.518 110.5,682.5 Z"/></g>
<g><path style="opacity:1" fill="#e91c24" d="M 960.5,682.5 C 1009.17,682.5 1057.83,682.5 1106.5,682.5C 1096.25,752.529 1072.41,817.529 1035,877.5C 1028.36,887.96 1021.19,897.96 1013.5,907.5C 979.5,872.833 945.167,838.5 910.5,804.5C 934.378,766.883 951.045,726.216 960.5,682.5 Z"/></g>
<g><path style="opacity:1" fill="#fefdfd" d="M 302.5,801.5 C 330.412,844.08 365.412,879.746 407.5,908.5C 373.833,942.833 339.833,976.833 305.5,1010.5C 303.745,1009.93 302.078,1009.09 300.5,1008C 262.113,977.785 228.78,942.952 200.5,903.5C 234.167,869.167 268.167,835.167 302.5,801.5 Z"/></g>
<g><path style="opacity:1" fill="#fefdfd" d="M 910.5,804.5 C 945.167,838.5 979.5,872.833 1013.5,907.5C 1003.67,921.848 992.832,935.515 981,948.5C 967.471,962.363 953.638,975.863 939.5,989C 929.223,997.79 918.556,1005.96 907.5,1013.5C 872.833,979.5 838.5,945.167 804.5,910.5C 846.833,882.167 882.167,846.833 910.5,804.5 Z"/></g>
<g><path style="opacity:1" fill="#e91c24" d="M 407.5,908.5 C 445.823,933.615 487.49,950.948 532.5,960.5C 532.5,1009.17 532.5,1057.83 532.5,1106.5C 454.761,1094.95 383.761,1066.78 319.5,1022C 314.353,1018.68 309.686,1014.85 305.5,1010.5C 339.833,976.833 373.833,942.833 407.5,908.5 Z"/></g>
<g><path style="opacity:1" fill="#e91c24" d="M 804.5,910.5 C 838.5,945.167 872.833,979.5 907.5,1013.5C 882.902,1032.15 856.569,1048.32 828.5,1062C 782.184,1084.3 733.518,1099.14 682.5,1106.5C 682.5,1057.83 682.5,1009.17 682.5,960.5C 726.19,950.981 766.856,934.315 804.5,910.5 Z"/></g>
<g><path style="opacity:1" fill="#fefefe" d="M 532.5,960.5 C 582.511,970.995 632.511,970.995 682.5,960.5C 682.5,1009.17 682.5,1057.83 682.5,1106.5C 643.49,1112.44 604.157,1113.94 564.5,1111C 553.585,1110.25 542.918,1108.75 532.5,1106.5C 532.5,1057.83 532.5,1009.17 532.5,960.5 Z"/></g>
</svg>
