<?xml version="1.0" encoding="UTF-8"?>
<!DOCTYPE svg PUBLIC "-//W3C//DTD SVG 1.1//EN" "http://www.w3.org/Graphics/SVG/1.1/DTD/svg11.dtd">
<svg xmlns="http://www.w3.org/2000/svg" version="1.1" width="1215px" height="1215px" style="shape-rendering:geometricPrecision; text-rendering:geometricPrecision; image-rendering:optimizeQuality; fill-rule:evenodd; clip-rule:evenodd" xmlns:xlink="http://www.w3.org/1999/xlink">
<g><path style="opacity:0.998" fill="#000000" d="M 571.5,2.5 C 741.222,-4.32701 889.222,48.173 1015.5,160C 1134.08,271.233 1199.25,408.4 1211,571.5C 1218.32,741.243 1165.99,889.243 1054,1015.5C 942.767,1134.08 805.6,1199.25 642.5,1211C 472.757,1218.32 324.757,1165.99 198.5,1054C 79.918,942.767 14.7513,805.6 3,642.5C -4.18561,477.375 45.4811,332.375 152,207.5C 264.176,83.4993 404.009,15.1659 571.5,2.5 Z"/></g>
<g><path style="opacity:1" fill="#fcfcfc" d="M 776.5,132.5 C 776.369,146.848 776.702,161.181 777.5,175.5C 764.079,162.849 748.079,155.682 729.5,154C 719.167,153.667 708.833,153.333 698.5,153C 692.892,149.724 687.558,146.057 682.5,142C 670.137,129.971 658.137,117.638 646.5,105C 691.364,107.638 734.697,116.804 776.5,132.5 Z"/></g>
<g><path style="opacity:1" fill="#fbfafa" d="M 424.5,174.5 C 424.5,161.833 424.5,149.167 424.5,136.5C 462.921,121.811 502.587,111.644 543.5,106C 546.882,105.176 550.216,105.343 553.5,106.5C 542.318,117.848 531.318,129.348 520.5,141C 515.167,145 509.833,149 504.5,153C 502.966,153.923 501.299,154.423 499.5,154.5C 478.874,150.959 459.207,153.792 440.5,163C 434.73,166.277 429.397,170.11 424.5,174.5 Z"/></g>
<g><path style="opacity:1" fill="#e91d25" d="M 776.5,132.5 C 815.28,145.89 851.613,164.056 885.5,187C 874.242,203.096 863.576,219.596 853.5,236.5C 832.966,249.601 811.966,261.935 790.5,273.5C 789.833,259.833 789.167,246.167 788.5,232.5C 788.258,212.792 784.592,193.792 777.5,175.5C 776.702,161.181 776.369,146.848 776.5,132.5 Z"/></g>
<g><path style="opacity:1" fill="#e81d24" d="M 424.5,136.5 C 424.5,149.167 424.5,161.833 424.5,174.5C 419.825,185.029 416.659,196.029 415,207.5C 413.145,229.457 411.979,251.457 411.5,273.5C 390.173,261.838 369.173,249.672 348.5,237C 338.755,222.255 329.422,207.255 320.5,192C 352.651,169.087 387.317,150.587 424.5,136.5 Z"/></g>
<g><path style="opacity:1" fill="#e81e25" d="M 971.5,259.5 C 938.167,280.833 904.833,302.167 871.5,323.5C 844.279,315.694 816.945,308.194 789.5,301C 812.833,286.667 836.167,272.333 859.5,258C 882.385,247.597 906.385,243.263 931.5,245C 938.079,243.877 944.079,241.377 949.5,237.5C 957.188,244.521 964.521,251.854 971.5,259.5 Z"/></g>
<g><path style="opacity:1" fill="#e91e25" d="M 319.5,326.5 C 289.694,308.428 260.027,290.095 230.5,271.5C 239.424,260.907 249.091,250.907 259.5,241.5C 263.812,244.104 268.478,245.604 273.5,246C 296.793,244.089 319.126,247.755 340.5,257C 364.334,271.416 388.001,286.083 411.5,301C 380.571,308.588 349.904,317.088 319.5,326.5 Z"/></g>
<g><path style="opacity:1" fill="#48221c" d="M 788.5,232.5 C 789.167,246.167 789.833,259.833 790.5,273.5C 790.44,274.043 790.107,274.376 789.5,274.5C 788.501,260.516 788.167,246.516 788.5,232.5 Z"/></g>
<g><path style="opacity:1" fill="#fefdfd" d="M 971.5,259.5 C 1003.54,292.232 1030.2,328.898 1051.5,369.5C 1006.67,370.499 961.67,370.832 916.5,370.5C 910.441,359.384 904.608,348.051 899,336.5C 890.364,330.931 881.197,326.597 871.5,323.5C 904.833,302.167 938.167,280.833 971.5,259.5 Z"/></g>
<g><path style="opacity:1" fill="#fdfdfd" d="M 230.5,271.5 C 260.027,290.095 289.694,308.428 319.5,326.5C 313.648,329.68 307.815,333.013 302,336.5C 296.935,348.299 291.101,359.632 284.5,370.5C 243.33,370.832 202.33,370.499 161.5,369.5C 177.929,338.968 197.095,310.301 219,283.5C 222.619,279.234 226.452,275.234 230.5,271.5 Z"/></g>
<g><path style="opacity:1" fill="#f5f5f5" d="M 882.5,369.5 C 874.167,370.167 865.833,370.833 857.5,371.5C 848.348,372.046 839.348,371.212 830.5,369C 825.154,366.997 820.487,363.997 816.5,360C 839.23,358.512 861.23,361.678 882.5,369.5 Z"/></g>
<g><path style="opacity:1" fill="#f8f8f8" d="M 365.5,370.5 C 349.658,370.83 333.991,370.496 318.5,369.5C 337.728,361.574 357.728,358.741 378.5,361C 376.302,367.025 371.969,370.191 365.5,370.5 Z"/></g>
<g><path style="opacity:1" fill="#666363" d="M 161.5,369.5 C 202.33,370.499 243.33,370.832 284.5,370.5C 243.331,371.831 201.998,371.831 160.5,370.5C 160.624,369.893 160.957,369.56 161.5,369.5 Z"/></g>
<g><path style="opacity:1" fill="#6f6c6c" d="M 318.5,369.5 C 333.991,370.496 349.658,370.83 365.5,370.5C 349.339,371.662 333.005,371.828 316.5,371C 317.044,370.283 317.711,369.783 318.5,369.5 Z"/></g>
<g><path style="opacity:1" fill="#504e4d" d="M 882.5,369.5 C 883.289,369.783 883.956,370.283 884.5,371C 875.506,371.5 866.506,371.666 857.5,371.5C 865.833,370.833 874.167,370.167 882.5,369.5 Z"/></g>
<g><path style="opacity:1" fill="#888585" d="M 1051.5,369.5 C 1052.04,369.56 1052.38,369.893 1052.5,370.5C 1007,371.831 961.668,371.831 916.5,370.5C 961.67,370.832 1006.67,370.499 1051.5,369.5 Z"/></g>
<g><path style="opacity:1" fill="#fcfcfc" d="M 1070.5,396.5 C 1108.45,392.88 1133.95,408.88 1147,444.5C 1148.01,448.22 1149.18,451.886 1150.5,455.5C 1138.91,459.361 1127.25,463.028 1115.5,466.5C 1112.51,456.033 1107.51,446.533 1100.5,438C 1086.93,428.374 1074.43,429.541 1063,441.5C 1057.45,454.207 1058.78,466.207 1067,477.5C 1070.5,481 1074,484.5 1077.5,488C 1093.04,498.942 1108.04,510.608 1122.5,523C 1137.52,535.535 1147.02,551.368 1151,570.5C 1154.68,607.349 1138.84,630.849 1103.5,641C 1051.21,648.71 1021.21,626.543 1013.5,574.5C 1025.5,571.167 1037.5,567.833 1049.5,564.5C 1050.64,578.597 1055.97,590.763 1065.5,601C 1075.79,607.796 1086.79,609.13 1098.5,605C 1111.1,597.271 1115.6,586.105 1112,571.5C 1107.91,561.845 1101.74,553.678 1093.5,547C 1076.06,533.527 1058.89,519.693 1042,505.5C 1018.21,480.306 1014.21,452.306 1030,421.5C 1040.48,408.18 1053.98,399.846 1070.5,396.5 Z"/></g>
<g><path style="opacity:1" fill="#e91c24" d="M 77.5,400.5 C 89.8333,400.5 102.167,400.5 114.5,400.5C 114.5,468.5 114.5,536.5 114.5,604.5C 138.833,604.5 163.167,604.5 187.5,604.5C 187.5,615.833 187.5,627.167 187.5,638.5C 150.833,638.5 114.167,638.5 77.5,638.5C 77.5,559.167 77.5,479.833 77.5,400.5 Z"/></g>
<g><path style="opacity:1" fill="#e81c24" d="M 210.5,400.5 C 234.502,400.333 258.502,400.5 282.5,401C 316.787,405.957 335.287,425.791 338,460.5C 338.667,499.833 338.667,539.167 338,578.5C 335.249,613.246 316.749,633.079 282.5,638C 258.502,638.5 234.502,638.667 210.5,638.5C 210.5,559.167 210.5,479.833 210.5,400.5 Z"/></g>
<g><path style="opacity:1" fill="#e91c24" d="M 371.5,400.5 C 384.184,400.168 396.851,400.501 409.5,401.5C 429,449.833 448.5,498.167 468,546.5C 468.5,497.834 468.667,449.168 468.5,400.5C 480.167,400.5 491.833,400.5 503.5,400.5C 503.5,479.833 503.5,559.167 503.5,638.5C 492.252,638.821 481.085,638.487 470,637.5C 448.804,585.58 427.804,533.58 407,481.5C 406.5,533.832 406.333,586.166 406.5,638.5C 394.833,638.5 383.167,638.5 371.5,638.5C 371.5,559.167 371.5,479.833 371.5,400.5 Z"/></g>
<g><path style="opacity:1" fill="#fdfdfd" d="M 539.5,400.5 C 562.502,400.333 585.502,400.5 608.5,401C 652.189,408.055 670.356,433.555 663,477.5C 657.526,496.307 645.36,508.474 626.5,514C 644.287,517.804 657.453,527.637 666,543.5C 672.196,562.945 671.862,582.278 665,601.5C 654.5,622.852 637.334,635.019 613.5,638C 588.836,638.5 564.169,638.667 539.5,638.5C 539.5,559.167 539.5,479.833 539.5,400.5 Z"/></g>
<g><path style="opacity:1" fill="#fdfdfd" d="M 702.5,400.5 C 714.833,400.5 727.167,400.5 739.5,400.5C 739.333,432.835 739.5,465.168 740,497.5C 757.333,465.5 774.667,433.5 792,401.5C 805.425,400.344 818.925,400.178 832.5,401C 815.574,429.519 798.907,458.186 782.5,487C 801.402,537.206 820.402,587.372 839.5,637.5C 825.85,638.499 812.183,638.833 798.5,638.5C 785.64,601.089 772.473,563.755 759,526.5C 752.667,537.167 746.333,547.833 740,558.5C 739.5,585.165 739.333,611.831 739.5,638.5C 727.167,638.5 714.833,638.5 702.5,638.5C 702.5,559.167 702.5,479.833 702.5,400.5 Z"/></g>
<g><path style="opacity:1" fill="#fdfdfd" d="M 865.5,400.5 C 891.871,400.055 918.204,400.555 944.5,402C 970.806,409.31 986.306,426.477 991,453.5C 993.059,471.047 991.059,488.047 985,504.5C 979.551,514.949 971.718,523.115 961.5,529C 960.941,529.725 960.608,530.558 960.5,531.5C 972.243,567.062 983.577,602.729 994.5,638.5C 981.5,638.5 968.5,638.5 955.5,638.5C 945.643,606.093 935.476,573.76 925,541.5C 917.587,540.519 910.087,540.186 902.5,540.5C 902.5,573.167 902.5,605.833 902.5,638.5C 890.167,638.5 877.833,638.5 865.5,638.5C 865.5,559.167 865.5,479.833 865.5,400.5 Z"/></g>
<g><path style="opacity:1" fill="#000000" d="M 247.5,434.5 C 258.943,434.035 270.276,434.868 281.5,437C 293.585,442.981 299.752,452.815 300,466.5C 301.968,501.828 301.968,537.162 300,572.5C 299.157,591.003 289.657,601.503 271.5,604C 263.507,604.5 255.507,604.666 247.5,604.5C 247.5,547.833 247.5,491.167 247.5,434.5 Z"/></g>
<g><path style="opacity:1" fill="#010101" d="M 576.5,434.5 C 584.507,434.334 592.507,434.5 600.5,435C 617.278,437.443 625.945,447.11 626.5,464C 625.925,481.242 617.258,491.908 600.5,496C 592.553,497.275 584.553,497.775 576.5,497.5C 576.5,476.5 576.5,455.5 576.5,434.5 Z"/></g>
<g><path style="opacity:1" fill="#010101" d="M 902.5,434.5 C 912.204,434.302 921.87,434.802 931.5,436C 941.339,437.502 947.839,443.002 951,452.5C 954.499,466.839 953.499,480.839 948,494.5C 944.242,500.635 938.742,504.135 931.5,505C 921.866,506.147 912.2,506.647 902.5,506.5C 902.5,482.5 902.5,458.5 902.5,434.5 Z"/></g>
<g><path style="opacity:1" fill="#000000" d="M 576.5,531.5 C 590.626,530.02 603.96,532.52 616.5,539C 626.991,546.817 631.991,557.317 631.5,570.5C 632.168,588.355 623.835,599.188 606.5,603C 596.541,604.256 586.541,604.756 576.5,604.5C 576.5,580.167 576.5,555.833 576.5,531.5 Z"/></g>
<g><path style="opacity:1" fill="#d0d0d0" d="M 568.5,657.5 C 584.086,655.043 597.919,658.71 610,668.5C 616.598,676.618 620.265,685.951 621,696.5C 621.667,721.5 621.667,746.5 621,771.5C 618.077,803.398 600.577,817.231 568.5,813C 550.113,808.277 539.947,796.444 538,777.5C 537.333,749.5 537.333,721.5 538,693.5C 540.138,674.54 550.305,662.54 568.5,657.5 Z"/></g>
<g><path style="opacity:1" fill="#d0d0d0" d="M 763.5,657.5 C 779.086,655.043 792.919,658.71 805,668.5C 811.598,676.618 815.265,685.951 816,696.5C 816.667,721.5 816.667,746.5 816,771.5C 813.077,803.398 795.577,817.231 763.5,813C 745.113,808.277 734.947,796.444 733,777.5C 732.333,749.5 732.333,721.5 733,693.5C 735.138,674.54 745.305,662.54 763.5,657.5 Z"/></g>
<g><path style="opacity:1" fill="#d0d0d0" d="M 866.5,657.5 C 895.507,654.552 912.674,667.219 918,695.5C 911.76,698.186 905.26,700.186 898.5,701.5C 897.558,701.392 896.725,701.059 896,700.5C 894.388,694.609 891.721,689.275 888,684.5C 881.159,679.848 873.993,679.348 866.5,683C 860.131,691.257 859.964,699.757 866,708.5C 876.253,718.09 887.086,726.924 898.5,735C 902.667,739.167 906.833,743.333 911,747.5C 923.138,764.656 923.472,781.989 912,799.5C 904.896,807.303 896.062,811.803 885.5,813C 862.14,816.575 845.64,807.742 836,786.5C 834.035,781.638 832.535,776.638 831.5,771.5C 839.119,767.961 847.119,765.628 855.5,764.5C 855.775,775.896 860.775,784.396 870.5,790C 887.79,793.037 895.957,785.87 895,768.5C 893.416,764.325 891.082,760.659 888,757.5C 875,746.833 862,736.167 849,725.5C 836.186,711.378 833.186,695.378 840,677.5C 846.089,667.055 854.922,660.388 866.5,657.5 Z"/></g>
<g><path style="opacity:1" fill="#d0d0d0" d="M 333.5,659.5 C 350.503,659.333 367.503,659.5 384.5,660C 401.2,662.032 411.7,671.198 416,687.5C 424.109,734.224 404.609,754.891 357.5,749.5C 357.5,770.167 357.5,790.833 357.5,811.5C 349.5,811.5 341.5,811.5 333.5,811.5C 333.5,760.833 333.5,710.167 333.5,659.5 Z"/></g>
<g><path style="opacity:1" fill="#d0d0d0" d="M 435.5,659.5 C 443.5,659.5 451.5,659.5 459.5,659.5C 459.5,680.5 459.5,701.5 459.5,722.5C 470.833,722.5 482.167,722.5 493.5,722.5C 493.5,701.5 493.5,680.5 493.5,659.5C 501.5,659.5 509.5,659.5 517.5,659.5C 517.5,710.167 517.5,760.833 517.5,811.5C 509.5,811.5 501.5,811.5 493.5,811.5C 493.5,789.167 493.5,766.833 493.5,744.5C 482.167,744.5 470.833,744.5 459.5,744.5C 459.5,766.833 459.5,789.167 459.5,811.5C 451.5,811.5 443.5,811.5 435.5,811.5C 435.5,760.833 435.5,710.167 435.5,659.5 Z"/></g>
<g><path style="opacity:1" fill="#d1d1d1" d="M 635.5,659.5 C 662.833,659.5 690.167,659.5 717.5,659.5C 717.5,666.833 717.5,674.167 717.5,681.5C 707.833,681.5 698.167,681.5 688.5,681.5C 688.5,724.833 688.5,768.167 688.5,811.5C 680.5,811.5 672.5,811.5 664.5,811.5C 664.5,768.167 664.5,724.833 664.5,681.5C 655.014,680.506 645.348,680.173 635.5,680.5C 635.5,673.5 635.5,666.5 635.5,659.5 Z"/></g>
<g><path style="opacity:1" fill="#010101" d="M 572.5,680.5 C 585.201,677.648 593.368,682.314 597,694.5C 597.929,722.528 597.596,750.528 596,778.5C 594.91,784.588 591.41,788.421 585.5,790C 572.549,793.12 564.716,788.287 562,775.5C 561.333,748.5 561.333,721.5 562,694.5C 563.085,687.928 566.585,683.261 572.5,680.5 Z"/></g>
<g><path style="opacity:1" fill="#a3a3a3" d="M 635.5,659.5 C 635.5,666.5 635.5,673.5 635.5,680.5C 645.348,680.173 655.014,680.506 664.5,681.5C 654.5,681.5 644.5,681.5 634.5,681.5C 634.175,673.981 634.508,666.648 635.5,659.5 Z"/></g>
<g><path style="opacity:1" fill="#010101" d="M 767.5,680.5 C 780.201,677.648 788.368,682.314 792,694.5C 792.929,722.528 792.596,750.528 791,778.5C 789.91,784.588 786.41,788.421 780.5,790C 767.549,793.12 759.716,788.287 757,775.5C 756.333,748.5 756.333,721.5 757,694.5C 758.085,687.928 761.585,683.261 767.5,680.5 Z"/></g>
<g><path style="opacity:1" fill="#000000" d="M 357.5,681.5 C 363.176,681.334 368.843,681.501 374.5,682C 387.784,683.186 393.784,690.519 392.5,704C 394.184,717.959 388.184,725.626 374.5,727C 368.843,727.499 363.176,727.666 357.5,727.5C 357.5,712.167 357.5,696.833 357.5,681.5 Z"/></g>
<g><path style="opacity:1" fill="#676464" d="M 389.5,828.5 C 389.158,829.338 388.492,829.672 387.5,829.5C 309.826,828.836 232.493,829.503 155.5,831.5C 154.596,830.791 154.263,829.791 154.5,828.5C 232.833,828.5 311.167,828.5 389.5,828.5 Z"/></g>
<g><path style="opacity:1" fill="#6c6969" d="M 424.5,829.5 C 424.5,829.167 424.5,828.833 424.5,828.5C 433.167,828.5 441.833,828.5 450.5,828.5C 450.5,831.167 450.5,833.833 450.5,836.5C 449.532,834.393 449.198,832.059 449.5,829.5C 441.167,829.5 432.833,829.5 424.5,829.5 Z"/></g>
<g><path style="opacity:1" fill="#676565" d="M 776.5,828.5 C 776.5,828.833 776.5,829.167 776.5,829.5C 768.167,829.5 759.833,829.5 751.5,829.5C 751.823,836.022 751.49,842.355 750.5,848.5C 750.5,841.833 750.5,835.167 750.5,828.5C 759.167,828.5 767.833,828.5 776.5,828.5 Z"/></g>
<g><path style="opacity:1" fill="#fefefe" d="M 387.5,829.5 C 332.368,863.569 277.368,897.902 222.5,932.5C 195.96,901.79 173.626,868.123 155.5,831.5C 232.493,829.503 309.826,828.836 387.5,829.5 Z"/></g>
<g><path style="opacity:1" fill="#e91d25" d="M 389.5,828.5 C 401.167,828.5 412.833,828.5 424.5,828.5C 424.5,828.833 424.5,829.167 424.5,829.5C 424.5,911.833 424.5,994.167 424.5,1076.5C 344.861,1045.69 277.527,997.688 222.5,932.5C 277.368,897.902 332.368,863.569 387.5,829.5C 388.492,829.672 389.158,829.338 389.5,828.5 Z"/></g>
<g><path style="opacity:1" fill="#fdfcfc" d="M 424.5,829.5 C 432.833,829.5 441.167,829.5 449.5,829.5C 449.198,832.059 449.532,834.393 450.5,836.5C 450.244,873.277 454.078,909.61 462,945.5C 464.87,975.481 467.537,1005.48 470,1035.5C 471.225,1043.19 472.559,1050.85 474,1058.5C 476.232,1063.73 480.065,1067.23 485.5,1069C 495.056,1071.44 504.722,1073.27 514.5,1074.5C 515.875,1083.79 516.875,1093.12 517.5,1102.5C 485.578,1096.85 454.578,1088.19 424.5,1076.5C 424.5,994.167 424.5,911.833 424.5,829.5 Z"/></g>
<g><path style="opacity:1" fill="#fdfdfd" d="M 776.5,829.5 C 776.5,913.167 776.5,996.833 776.5,1080.5C 746.591,1092.06 715.591,1100.06 683.5,1104.5C 683.963,1094.42 685.13,1084.42 687,1074.5C 697.231,1072.8 707.397,1070.63 717.5,1068C 723.438,1066.4 726.938,1062.56 728,1056.5C 729.831,1044.19 731.498,1031.86 733,1019.5C 734.642,978.074 739.642,937.074 748,896.5C 749.496,880.533 750.329,864.533 750.5,848.5C 751.49,842.355 751.823,836.022 751.5,829.5C 759.833,829.5 768.167,829.5 776.5,829.5 Z"/></g>
<g><path style="opacity:1" fill="#e86247" d="M 776.5,828.5 C 782.69,828.177 788.69,828.51 794.5,829.5C 788.833,829.5 783.167,829.5 777.5,829.5C 777.5,913.167 777.5,996.833 777.5,1080.5C 777.167,1080.5 776.833,1080.5 776.5,1080.5C 776.5,996.833 776.5,913.167 776.5,829.5C 776.5,829.167 776.5,828.833 776.5,828.5 Z"/></g>
<g><path style="opacity:1" fill="#e91d25" d="M 794.5,829.5 C 794.833,829.5 795.167,829.5 795.5,829.5C 857.298,867.569 918.965,905.902 980.5,944.5C 924.103,1006.54 856.436,1051.87 777.5,1080.5C 777.5,996.833 777.5,913.167 777.5,829.5C 783.167,829.5 788.833,829.5 794.5,829.5 Z"/></g>
<g><path style="opacity:1" fill="#fefefe" d="M 795.5,829.5 C 883.167,829.333 970.834,829.5 1058.5,830C 1037.56,871.749 1011.56,909.915 980.5,944.5C 918.965,905.902 857.298,867.569 795.5,829.5 Z"/></g>
</svg>
