<?xml version="1.0" encoding="UTF-8"?>
<!DOCTYPE svg PUBLIC "-//W3C//DTD SVG 1.1//EN" "http://www.w3.org/Graphics/SVG/1.1/DTD/svg11.dtd">
<svg xmlns="http://www.w3.org/2000/svg" version="1.1" width="2728px" height="1233px" style="shape-rendering:geometricPrecision; text-rendering:geometricPrecision; image-rendering:optimizeQuality; fill-rule:evenodd; clip-rule:evenodd" xmlns:xlink="http://www.w3.org/1999/xlink">
<g><path style="opacity:0.998" fill="#000000" d="M 1257.5,0.5 C 1470.52,-6.57663 1681.85,8.92337 1891.5,47C 2028.78,72.3183 2162.12,110.985 2291.5,163C 2385.55,200.833 2472.55,250.166 2552.5,311C 2595.16,344.321 2632.32,382.821 2664,426.5C 2749.03,552.81 2747.03,677.81 2658,801.5C 2626.62,843.885 2590.12,881.385 2548.5,914C 2477.21,968.509 2400.21,1014.18 2317.5,1051C 2194.1,1104.77 2066.44,1145.44 1934.5,1173C 1716.42,1217.87 1496.09,1236.87 1273.5,1230C 1075.08,1224.51 879.75,1197.18 687.5,1148C 561.873,1115.57 441.54,1069.57 326.5,1010C 259.599,974.744 197.933,932.077 141.5,882C 100.822,845.039 66.9882,802.872 40,755.5C -14.2797,653.745 -12.2797,553.078 46,453.5C 62.307,426.187 81.307,400.853 103,377.5C 160.499,317.637 225.666,268.137 298.5,229C 388.974,180.266 483.307,140.6 581.5,110C 762.947,55.0914 948.28,21.0914 1137.5,8C 1177.65,5.31548 1217.65,2.81548 1257.5,0.5 Z"/></g>
<g><path style="opacity:1" fill="#878584" d="M 1329.5,96.5 C 1332.98,95.3567 1336.64,95.1901 1340.5,96C 1339.47,96.5133 1338.47,97.0133 1337.5,97.5C 1335.05,96.5269 1332.39,96.1936 1329.5,96.5 Z"/></g>
<g><path style="opacity:1" fill="#7b7878" d="M 1388.5,96.5 C 1384.96,96.1872 1381.62,96.5206 1378.5,97.5C 1377.53,97.0133 1376.53,96.5133 1375.5,96C 1380.02,95.1864 1384.35,95.353 1388.5,96.5 Z"/></g>
<g><path style="opacity:1" fill="#fdfcfc" d="M 1329.5,96.5 C 1332.39,96.1936 1335.05,96.5269 1337.5,97.5C 1329.88,100.617 1322.88,104.783 1316.5,110C 1303.14,123.029 1290.14,136.362 1277.5,150C 1272.17,154 1266.83,158 1261.5,162C 1259.97,162.923 1258.3,163.423 1256.5,163.5C 1235.87,159.959 1216.21,162.792 1197.5,172C 1191.73,175.277 1186.4,179.11 1181.5,183.5C 1181.5,156.5 1181.5,129.5 1181.5,102.5C 1230.63,99.3777 1279.96,97.3777 1329.5,96.5 Z"/></g>
<g><path style="opacity:1" fill="#fcfcfc" d="M 1378.5,97.5 C 1381.62,96.5206 1384.96,96.1872 1388.5,96.5C 1430.85,97.1355 1473.18,98.3022 1515.5,100C 1521.92,99.8715 1527.92,100.705 1533.5,102.5C 1533.26,129.846 1533.59,157.179 1534.5,184.5C 1521.08,171.849 1505.08,164.682 1486.5,163C 1476.17,162.667 1465.83,162.333 1455.5,162C 1449.89,158.724 1444.56,155.057 1439.5,151C 1426.47,138.304 1413.8,125.304 1401.5,112C 1394.48,106.152 1386.82,101.319 1378.5,97.5 Z"/></g>
<g><path style="opacity:1" fill="#e91d25" d="M 1181.5,102.5 C 1181.5,129.5 1181.5,156.5 1181.5,183.5C 1176.83,194.029 1173.66,205.029 1172,216.5C 1170.15,238.457 1168.98,260.457 1168.5,282.5C 1147.17,270.838 1126.17,258.672 1105.5,246C 1095.46,230.082 1085.29,214.248 1075,198.5C 1068.75,190.247 1061.25,183.414 1052.5,178C 1033.74,168.97 1014.08,162.97 993.5,160C 985.436,159.137 977.436,159.47 969.5,161C 957.428,164.381 951.594,172.214 952,184.5C 958.328,201.644 968.495,216.144 982.5,228C 995.192,238.684 1009.19,247.351 1024.5,254C 1037.13,255.207 1049.79,255.874 1062.5,256C 1078.76,257.974 1093.76,263.307 1107.5,272C 1128,284.416 1148.33,297.083 1168.5,310C 1137.57,317.588 1106.9,326.088 1076.5,335.5C 979.488,275.331 882.822,214.664 786.5,153.5C 916.878,126.695 1048.54,109.695 1181.5,102.5 Z"/></g>
<g><path style="opacity:1" fill="#e91e25" d="M 1533.5,102.5 C 1666.51,108.751 1798.17,125.417 1928.5,152.5C 1928.5,153.167 1928.17,153.5 1927.5,153.5C 1922.51,152.778 1917.51,152.612 1912.5,153C 1817.6,212.608 1722.93,272.441 1628.5,332.5C 1601.28,324.694 1573.95,317.194 1546.5,310C 1571.17,295 1595.83,280 1620.5,265C 1643.91,255.591 1668.24,251.591 1693.5,253C 1718.17,241.658 1738.67,225.158 1755,203.5C 1771.14,175.643 1763.14,160.976 1731,159.5C 1705.08,160.689 1680.91,167.856 1658.5,181C 1649.96,187.871 1642.46,195.704 1636,204.5C 1627.5,218.167 1619,231.833 1610.5,245.5C 1589.97,258.601 1568.97,270.935 1547.5,282.5C 1546.83,268.833 1546.17,255.167 1545.5,241.5C 1545.26,221.792 1541.59,202.792 1534.5,184.5C 1533.59,157.179 1533.26,129.846 1533.5,102.5 Z"/></g>
<g><path style="opacity:1" fill="#fefefe" d="M 1927.5,153.5 C 1930.91,154.903 1934.58,155.57 1938.5,155.5C 2008.96,168.365 2077.96,186.365 2145.5,209.5C 2055.67,266.917 1965.34,323.584 1874.5,379.5C 1807.16,379.833 1739.83,379.5 1672.5,378.5C 1667,367.5 1661.5,356.5 1656,345.5C 1647.36,339.931 1638.2,335.597 1628.5,332.5C 1722.93,272.441 1817.6,212.608 1912.5,153C 1917.51,152.612 1922.51,152.778 1927.5,153.5 Z"/></g>
<g><path style="opacity:1" fill="#d1604a" d="M 1928.5,152.5 C 1932.08,153.007 1935.42,154.007 1938.5,155.5C 1934.58,155.57 1930.91,154.903 1927.5,153.5C 1928.17,153.5 1928.5,153.167 1928.5,152.5 Z"/></g>
<g><path style="opacity:1" fill="#fefefe" d="M 786.5,153.5 C 882.822,214.664 979.488,275.331 1076.5,335.5C 1070.65,338.68 1064.81,342.013 1059,345.5C 1054.07,357.187 1048.24,368.353 1041.5,379C 968.501,379.5 895.501,379.667 822.5,379.5C 734.567,324.896 646.9,269.896 559.5,214.5C 633.578,189.06 709.245,168.727 786.5,153.5 Z"/></g>
<g><path style="opacity:1" fill="#e91d25" d="M 2145.5,209.5 C 2241.28,240.134 2331.95,281.634 2417.5,334C 2439.06,348.224 2460.06,363.224 2480.5,379C 2278.5,379.5 2076.5,379.667 1874.5,379.5C 1965.34,323.584 2055.67,266.917 2145.5,209.5 Z"/></g>
<g><path style="opacity:1" fill="#e91d25" d="M 559.5,214.5 C 646.9,269.896 734.567,324.896 822.5,379.5C 627.166,379.667 431.833,379.5 236.5,379C 290.005,337.72 347.672,302.72 409.5,274C 458.464,251.513 508.464,231.68 559.5,214.5 Z"/></g>
<g><path style="opacity:1" fill="#48221c" d="M 1545.5,241.5 C 1546.17,255.167 1546.83,268.833 1547.5,282.5C 1547.44,283.043 1547.11,283.376 1546.5,283.5C 1545.5,269.516 1545.17,255.516 1545.5,241.5 Z"/></g>
<g><path style="opacity:1" fill="#f5f5f5" d="M 1639.5,378.5 C 1631.17,379.167 1622.83,379.833 1614.5,380.5C 1605.35,381.046 1596.35,380.212 1587.5,378C 1582.15,375.997 1577.49,372.997 1573.5,369C 1596.23,367.512 1618.23,370.678 1639.5,378.5 Z"/></g>
<g><path style="opacity:1" fill="#f8f8f8" d="M 1122.5,379.5 C 1106.66,379.83 1090.99,379.496 1075.5,378.5C 1094.73,370.574 1114.73,367.741 1135.5,370C 1133.3,376.025 1128.97,379.191 1122.5,379.5 Z"/></g>
<g><path style="opacity:1" fill="#6f6c6c" d="M 1075.5,378.5 C 1090.99,379.496 1106.66,379.83 1122.5,379.5C 1106.34,380.662 1090.01,380.828 1073.5,380C 1074.04,379.283 1074.71,378.783 1075.5,378.5 Z"/></g>
<g><path style="opacity:1" fill="#504e4d" d="M 1639.5,378.5 C 1640.29,378.783 1640.96,379.283 1641.5,380C 1632.51,380.5 1623.51,380.666 1614.5,380.5C 1622.83,379.833 1631.17,379.167 1639.5,378.5 Z"/></g>
<g><path style="opacity:1" fill="#e71c24" d="M 407.5,487.5 C 427.748,484.711 446.081,489.211 462.5,501C 474.275,513.057 480.775,527.557 482,544.5C 482.667,585.167 482.667,625.833 482,666.5C 479.469,697.808 462.969,716.641 432.5,723C 389.1,728.235 364.267,709.401 358,666.5C 357.333,625.833 357.333,585.167 358,544.5C 360.636,513.112 377.136,494.112 407.5,487.5 Z"/></g>
<g><path style="opacity:1" fill="#e71c24" d="M 877.5,487.5 C 897.748,484.711 916.081,489.211 932.5,501C 944.275,513.057 950.775,527.557 952,544.5C 952.667,585.167 952.667,625.833 952,666.5C 949.469,697.808 932.969,716.641 902.5,723C 859.1,728.235 834.267,709.401 828,666.5C 827.333,625.833 827.333,585.167 828,544.5C 830.636,513.112 847.136,494.112 877.5,487.5 Z"/></g>
<g><path style="opacity:1" fill="#fcfcfc" d="M 1853.5,487.5 C 1895.32,484.975 1920.32,504.309 1928.5,545.5C 1917.87,548.476 1907.2,551.476 1896.5,554.5C 1895.35,554.182 1894.52,553.516 1894,552.5C 1891.81,541.623 1886.65,532.457 1878.5,525C 1869.47,520.377 1860.47,520.377 1851.5,525C 1841.32,535.626 1839.82,547.46 1847,560.5C 1850.42,565.923 1854.59,570.756 1859.5,575C 1873.79,585.619 1887.79,596.619 1901.5,608C 1916.52,620.535 1926.02,636.368 1930,655.5C 1932.9,679.168 1925.06,698.335 1906.5,713C 1890.4,722.352 1873.06,725.685 1854.5,723C 1830.52,719.253 1814.02,706.086 1805,683.5C 1802.1,675.869 1799.93,668.035 1798.5,660C 1798.83,659.5 1799.17,659 1799.5,658.5C 1810.5,655.167 1821.5,651.833 1832.5,648.5C 1834.1,657.577 1836.94,666.243 1841,674.5C 1851.46,690.078 1865.29,693.911 1882.5,686C 1895.63,672.855 1896.79,658.688 1886,643.5C 1873.01,629.836 1858.85,617.67 1843.5,607C 1831.96,598.459 1822.13,588.293 1814,576.5C 1802.77,555.141 1802.77,533.808 1814,512.5C 1823.93,498.956 1837.1,490.623 1853.5,487.5 Z"/></g>
<g><path style="opacity:1" fill="#fcfcfc" d="M 2064.5,487.5 C 2106.77,483.299 2131.61,501.966 2139,543.5C 2139.5,550.826 2139.67,558.159 2139.5,565.5C 2127.5,565.5 2115.5,565.5 2103.5,565.5C 2105.07,553.055 2102.91,541.388 2097,530.5C 2089.33,521.946 2079.83,519.113 2068.5,522C 2057.57,527.329 2051.74,536.163 2051,548.5C 2050.33,585.167 2050.33,621.833 2051,658.5C 2052.04,665.314 2053.7,671.981 2056,678.5C 2064.03,689.392 2074.53,692.559 2087.5,688C 2096.64,682.85 2101.8,675.017 2103,664.5C 2104.05,656.198 2104.55,647.865 2104.5,639.5C 2116.5,639.5 2128.5,639.5 2140.5,639.5C 2142.92,663.129 2137.76,684.796 2125,704.5C 2108.51,720.922 2088.67,727.089 2065.5,723C 2034.31,716.126 2017.81,696.626 2016,664.5C 2015.04,621.808 2015.38,579.141 2017,536.5C 2021.93,509.402 2037.77,493.069 2064.5,487.5 Z"/></g>
<g><path style="opacity:1" fill="#fdfdfd" d="M 2218.5,487.5 C 2238.74,484.754 2257.08,489.254 2273.5,501C 2285.28,513.057 2291.78,527.557 2293,544.5C 2293.67,584.833 2293.67,625.167 2293,665.5C 2291.91,682.785 2285.41,697.618 2273.5,710C 2255.41,722.951 2235.41,726.951 2213.5,722C 2190.26,716.423 2176.09,701.923 2171,678.5C 2170.09,674.205 2169.42,669.872 2169,665.5C 2168.33,625.167 2168.33,584.833 2169,544.5C 2171.64,513.112 2188.14,494.112 2218.5,487.5 Z"/></g>
<g><path style="opacity:1" fill="#e81c24" d="M 676.5,491.5 C 699.169,491.333 721.836,491.5 744.5,492C 772.751,495.252 789.918,510.752 796,538.5C 797.134,560.632 797.634,582.799 797.5,605C 797.333,625.167 797.167,645.333 797,665.5C 793.246,696.92 775.746,714.754 744.5,719C 721.836,719.5 699.169,719.667 676.5,719.5C 676.5,643.5 676.5,567.5 676.5,491.5 Z"/></g>
<g><path style="opacity:1" fill="#fdfdfd" d="M 1146.5,491.5 C 1168.5,491.333 1190.5,491.5 1212.5,492C 1254.13,499.031 1271.3,523.531 1264,565.5C 1258.5,583 1247,594.5 1229.5,600C 1258.05,607.039 1272.05,625.206 1271.5,654.5C 1270.97,691.195 1252.64,712.695 1216.5,719C 1193.17,719.5 1169.84,719.667 1146.5,719.5C 1146.5,643.5 1146.5,567.5 1146.5,491.5 Z"/></g>
<g><path style="opacity:1" fill="#fefefe" d="M 1564.5,583.5 C 1580.99,584.497 1597.66,584.83 1614.5,584.5C 1614.5,595.167 1614.5,605.833 1614.5,616.5C 1597.83,616.5 1581.17,616.5 1564.5,616.5C 1564.5,639.833 1564.5,663.167 1564.5,686.5C 1587.17,686.5 1609.83,686.5 1632.5,686.5C 1632.5,697.5 1632.5,708.5 1632.5,719.5C 1598.17,719.5 1563.83,719.5 1529.5,719.5C 1529.5,643.5 1529.5,567.5 1529.5,491.5C 1563.83,491.5 1598.17,491.5 1632.5,491.5C 1632.5,502.5 1632.5,513.5 1632.5,524.5C 1609.83,524.5 1587.17,524.5 1564.5,524.5C 1564.5,544.167 1564.5,563.833 1564.5,583.5 Z"/></g>
<g><path style="opacity:1" fill="#fdfdfd" d="M 1657.5,491.5 C 1680.84,491.333 1704.17,491.5 1727.5,492C 1756.98,497.819 1773.82,515.652 1778,545.5C 1781.26,568.227 1775.76,588.394 1761.5,606C 1757.19,609.824 1752.52,613.157 1747.5,616C 1759.03,650.271 1770.37,684.604 1781.5,719C 1768.84,719.5 1756.17,719.667 1743.5,719.5C 1733.77,688.477 1723.94,657.477 1714,626.5C 1706.92,625.52 1699.75,625.187 1692.5,625.5C 1692.5,656.833 1692.5,688.167 1692.5,719.5C 1680.83,719.5 1669.17,719.5 1657.5,719.5C 1657.5,643.5 1657.5,567.5 1657.5,491.5 Z"/></g>
<g><path style="opacity:1" fill="#e91c24" d="M 230.5,491.5 C 242.167,491.5 253.833,491.5 265.5,491.5C 265.5,556.5 265.5,621.5 265.5,686.5C 288.833,686.5 312.167,686.5 335.5,686.5C 335.5,697.5 335.5,708.5 335.5,719.5C 300.5,719.5 265.5,719.5 230.5,719.5C 230.5,643.5 230.5,567.5 230.5,491.5 Z"/></g>
<g><path style="opacity:1" fill="#e81c24" d="M 606.5,629.5 C 606.461,630.756 606.961,631.756 608,632.5C 608.5,585.501 608.667,538.501 608.5,491.5C 619.5,491.5 630.5,491.5 641.5,491.5C 641.5,567.5 641.5,643.5 641.5,719.5C 630.813,719.832 620.146,719.499 609.5,718.5C 589.236,668.873 569.069,619.207 549,569.5C 548.5,619.499 548.333,669.499 548.5,719.5C 537.167,719.5 525.833,719.5 514.5,719.5C 514.5,643.5 514.5,567.5 514.5,491.5C 526.833,491.5 539.167,491.5 551.5,491.5C 569.827,537.489 588.16,583.489 606.5,629.5 Z"/></g>
<g><path style="opacity:1" fill="#950d13" d="M 608.5,491.5 C 608.667,538.501 608.5,585.501 608,632.5C 606.961,631.756 606.461,630.756 606.5,629.5C 607.167,583.5 607.833,537.5 608.5,491.5 Z"/></g>
<g><path style="opacity:1" fill="#e81c24" d="M 1076.5,629.5 C 1076.46,630.756 1076.96,631.756 1078,632.5C 1078.5,585.501 1078.67,538.501 1078.5,491.5C 1089.5,491.5 1100.5,491.5 1111.5,491.5C 1111.5,567.5 1111.5,643.5 1111.5,719.5C 1100.81,719.832 1090.15,719.499 1079.5,718.5C 1059.24,668.873 1039.07,619.207 1019,569.5C 1018.5,619.499 1018.33,669.499 1018.5,719.5C 1007.17,719.5 995.833,719.5 984.5,719.5C 984.5,643.5 984.5,567.5 984.5,491.5C 996.833,491.5 1009.17,491.5 1021.5,491.5C 1039.83,537.489 1058.16,583.489 1076.5,629.5 Z"/></g>
<g><path style="opacity:1" fill="#950d13" d="M 1078.5,491.5 C 1078.67,538.501 1078.5,585.501 1078,632.5C 1076.96,631.756 1076.46,630.756 1076.5,629.5C 1077.17,583.5 1077.83,537.5 1078.5,491.5 Z"/></g>
<g><path style="opacity:1" fill="#fefefe" d="M 1303.5,491.5 C 1315.17,491.5 1326.83,491.5 1338.5,491.5C 1338.5,567.5 1338.5,643.5 1338.5,719.5C 1326.83,719.5 1315.17,719.5 1303.5,719.5C 1303.5,643.5 1303.5,567.5 1303.5,491.5 Z"/></g>
<g><path style="opacity:1" fill="#fdfdfd" d="M 1373.5,491.5 C 1385.17,491.5 1396.83,491.5 1408.5,491.5C 1408.33,522.502 1408.5,553.502 1409,584.5C 1425.75,553.993 1442.25,523.326 1458.5,492.5C 1471.49,491.334 1484.49,491.167 1497.5,492C 1481.3,519.37 1465.3,546.87 1449.5,574.5C 1467.83,622.5 1486.17,670.5 1504.5,718.5C 1491.5,719.833 1478.5,719.833 1465.5,718.5C 1452.77,683.128 1439.93,647.795 1427,612.5C 1420.75,622.67 1414.75,633.003 1409,643.5C 1408.5,668.831 1408.33,694.164 1408.5,719.5C 1396.83,719.5 1385.17,719.5 1373.5,719.5C 1373.5,643.5 1373.5,567.5 1373.5,491.5 Z"/></g>
<g><path style="opacity:1" fill="#fbfbfb" d="M 2325.5,491.5 C 2343.17,491.5 2360.83,491.5 2378.5,491.5C 2388.5,538.519 2398.67,585.519 2409,632.5C 2419.69,585.534 2430.19,538.534 2440.5,491.5C 2457.83,491.5 2475.17,491.5 2492.5,491.5C 2492.5,567.5 2492.5,643.5 2492.5,719.5C 2481.17,719.5 2469.83,719.5 2458.5,719.5C 2458.67,664.832 2458.5,610.166 2458,555.5C 2444.85,610.11 2432.01,664.776 2419.5,719.5C 2412.05,720.108 2404.89,719.441 2398,717.5C 2385.33,663.477 2372.66,609.477 2360,555.5C 2359.5,610.166 2359.33,664.832 2359.5,719.5C 2348.17,719.5 2336.83,719.5 2325.5,719.5C 2325.5,643.5 2325.5,567.5 2325.5,491.5 Z"/></g>
<g><path style="opacity:1" fill="#020000" d="M 411.5,521.5 C 423.057,519.188 432.89,522.188 441,530.5C 443.808,534.778 445.474,539.444 446,544.5C 446.667,585.167 446.667,625.833 446,666.5C 441.991,685.106 430.491,692.606 411.5,689C 404.066,686.565 398.899,681.732 396,674.5C 394.278,668.282 393.278,661.949 393,655.5C 392.333,619.5 392.333,583.5 393,547.5C 394.056,535.011 400.222,526.344 411.5,521.5 Z"/></g>
<g><path style="opacity:1" fill="#020000" d="M 881.5,521.5 C 893.057,519.188 902.89,522.188 911,530.5C 913.808,534.778 915.474,539.444 916,544.5C 916.667,585.167 916.667,625.833 916,666.5C 911.991,685.106 900.491,692.606 881.5,689C 874.066,686.565 868.899,681.732 866,674.5C 864.278,668.282 863.278,661.949 863,655.5C 862.333,619.5 862.333,583.5 863,547.5C 864.056,535.011 870.222,526.344 881.5,521.5 Z"/></g>
<g><path style="opacity:1" fill="#040404" d="M 2222.5,521.5 C 2242.56,518.429 2254.4,526.763 2258,546.5C 2258.67,585.5 2258.67,624.5 2258,663.5C 2254.96,684.113 2243.12,692.613 2222.5,689C 2215.07,686.565 2209.9,681.732 2207,674.5C 2205.28,668.282 2204.28,661.949 2204,655.5C 2203.33,619.5 2203.33,583.5 2204,547.5C 2205.06,535.011 2211.22,526.344 2222.5,521.5 Z"/></g>
<g><path style="opacity:1" fill="#000000" d="M 711.5,524.5 C 721.557,524.135 731.557,524.635 741.5,526C 747.879,527.433 752.713,530.933 756,536.5C 758.672,541.856 760.339,547.523 761,553.5C 762.992,587.835 762.992,622.168 761,656.5C 760.36,665.941 756.86,674.108 750.5,681C 747.618,682.608 744.618,683.941 741.5,685C 731.557,686.365 721.557,686.865 711.5,686.5C 711.5,632.5 711.5,578.5 711.5,524.5 Z"/></g>
<g><path style="opacity:1" fill="#010101" d="M 1181.5,524.5 C 1189.17,524.334 1196.84,524.5 1204.5,525C 1219.93,526.768 1228.27,535.435 1229.5,551C 1228.68,569.151 1219.35,579.818 1201.5,583C 1194.84,583.5 1188.17,583.666 1181.5,583.5C 1181.5,563.833 1181.5,544.167 1181.5,524.5 Z"/></g>
<g><path style="opacity:1" fill="#010101" d="M 1692.5,524.5 C 1732.4,518.564 1747.9,535.23 1739,574.5C 1736.02,585.479 1728.85,591.313 1717.5,592C 1709.17,592.5 1700.84,592.666 1692.5,592.5C 1692.5,569.833 1692.5,547.167 1692.5,524.5 Z"/></g>
<g><path style="opacity:1" fill="#909090" d="M 1564.5,583.5 C 1581.5,583.5 1598.5,583.5 1615.5,583.5C 1615.83,594.679 1615.49,605.679 1614.5,616.5C 1614.5,605.833 1614.5,595.167 1614.5,584.5C 1597.66,584.83 1580.99,584.497 1564.5,583.5 Z"/></g>
<g><path style="opacity:1" fill="#010101" d="M 1181.5,616.5 C 1194.48,615.219 1206.82,617.386 1218.5,623C 1235.65,637.206 1239.15,654.373 1229,674.5C 1223.48,681.345 1216.31,685.178 1207.5,686C 1198.84,686.5 1190.17,686.666 1181.5,686.5C 1181.5,663.167 1181.5,639.833 1181.5,616.5 Z"/></g>
<g><path style="opacity:1" fill="#fdfdfd" d="M 1954.5,682.5 C 1965.5,682.5 1976.5,682.5 1987.5,682.5C 1987.5,694.833 1987.5,707.167 1987.5,719.5C 1976.5,719.5 1965.5,719.5 1954.5,719.5C 1954.5,707.167 1954.5,694.833 1954.5,682.5 Z"/></g>
<g><path style="opacity:1" fill="#d2d2d2" d="M 1284.5,793.5 C 1304.74,790.754 1323.08,795.254 1339.5,807C 1351.28,819.057 1357.78,833.557 1359,850.5C 1359.67,890.833 1359.67,931.167 1359,971.5C 1357.91,988.787 1351.41,1003.62 1339.5,1016C 1321.41,1028.95 1301.41,1032.95 1279.5,1028C 1256.26,1022.42 1242.09,1007.92 1237,984.5C 1236.09,980.205 1235.42,975.872 1235,971.5C 1234.33,931.167 1234.33,890.833 1235,850.5C 1237.64,819.112 1254.14,800.112 1284.5,793.5 Z"/></g>
<g><path style="opacity:1" fill="#d2d2d2" d="M 1575.5,793.5 C 1595.74,790.754 1614.08,795.254 1630.5,807C 1642.28,819.057 1648.78,833.557 1650,850.5C 1650.67,890.833 1650.67,931.167 1650,971.5C 1648.91,988.787 1642.41,1003.62 1630.5,1016C 1612.41,1028.95 1592.41,1032.95 1570.5,1028C 1547.26,1022.42 1533.09,1007.92 1528,984.5C 1527.09,980.205 1526.42,975.872 1526,971.5C 1525.33,931.167 1525.33,890.833 1526,850.5C 1528.64,819.112 1545.14,800.112 1575.5,793.5 Z"/></g>
<g><path style="opacity:1" fill="#d1d1d1" d="M 1730.5,793.5 C 1772.32,790.975 1797.32,810.309 1805.5,851.5C 1794.72,854.559 1783.88,857.559 1773,860.5C 1770.12,852.584 1766.46,844.917 1762,837.5C 1752.53,826.808 1741.36,824.641 1728.5,831C 1719.31,839.974 1717.15,850.474 1722,862.5C 1725.31,869.813 1730.14,875.98 1736.5,881C 1750.79,891.619 1764.79,902.619 1778.5,914C 1793.52,926.535 1803.02,942.368 1807,961.5C 1809.98,988.704 1799.81,1009.2 1776.5,1023C 1753.17,1032.24 1730.17,1031.57 1707.5,1021C 1695.81,1013.13 1687.31,1002.63 1682,989.5C 1679.1,981.869 1676.93,974.035 1675.5,966C 1675.91,965.055 1676.57,964.388 1677.5,964C 1688.35,960.437 1699.35,957.604 1710.5,955.5C 1711.49,969.68 1717.16,981.513 1727.5,991C 1734.9,995.306 1742.9,996.639 1751.5,995C 1764.46,991.167 1770.8,982.334 1770.5,968.5C 1769.97,961.35 1767.47,955.017 1763,949.5C 1750.01,935.836 1735.85,923.67 1720.5,913C 1708.96,904.459 1699.13,894.293 1691,882.5C 1679.77,861.141 1679.77,839.808 1691,818.5C 1700.93,804.956 1714.1,796.623 1730.5,793.5 Z"/></g>
<g><path style="opacity:1" fill="#d2d2d2" d="M 930.5,797.5 C 955.169,797.333 979.836,797.5 1004.5,798C 1033.88,802.71 1050.38,819.877 1054,849.5C 1055.59,865.779 1054.26,881.779 1050,897.5C 1040.38,920.757 1022.88,932.591 997.5,933C 986.839,933.5 976.172,933.667 965.5,933.5C 965.5,964.167 965.5,994.833 965.5,1025.5C 953.833,1025.5 942.167,1025.5 930.5,1025.5C 930.5,949.5 930.5,873.5 930.5,797.5 Z"/></g>
<g><path style="opacity:1" fill="#d3d3d3" d="M 1381.5,797.5 C 1422.5,797.5 1463.5,797.5 1504.5,797.5C 1504.5,808.167 1504.5,818.833 1504.5,829.5C 1489.66,829.171 1474.99,829.504 1460.5,830.5C 1460.5,895.5 1460.5,960.5 1460.5,1025.5C 1448.83,1025.5 1437.17,1025.5 1425.5,1025.5C 1425.5,960.167 1425.5,894.833 1425.5,829.5C 1410.83,829.5 1396.17,829.5 1381.5,829.5C 1381.5,818.833 1381.5,808.167 1381.5,797.5 Z"/></g>
<g><path style="opacity:1" fill="#d3d3d3" d="M 1082.5,797.5 C 1094.17,797.5 1105.83,797.5 1117.5,797.5C 1117.5,829.167 1117.5,860.833 1117.5,892.5C 1134.17,892.5 1150.83,892.5 1167.5,892.5C 1167.5,860.833 1167.5,829.167 1167.5,797.5C 1179.17,797.5 1190.83,797.5 1202.5,797.5C 1202.5,873.5 1202.5,949.5 1202.5,1025.5C 1190.83,1025.5 1179.17,1025.5 1167.5,1025.5C 1167.5,992.167 1167.5,958.833 1167.5,925.5C 1150.83,925.5 1134.17,925.5 1117.5,925.5C 1117.5,958.833 1117.5,992.167 1117.5,1025.5C 1105.83,1025.5 1094.17,1025.5 1082.5,1025.5C 1082.5,949.5 1082.5,873.5 1082.5,797.5 Z"/></g>
<g><path style="opacity:1" fill="#040404" d="M 1288.5,827.5 C 1308.56,824.429 1320.4,832.763 1324,852.5C 1324.67,891.5 1324.67,930.5 1324,969.5C 1320.96,990.113 1309.12,998.613 1288.5,995C 1281.09,992.592 1275.92,987.758 1273,980.5C 1271.57,975.255 1270.57,969.922 1270,964.5C 1269.33,927.5 1269.33,890.5 1270,853.5C 1271.07,840.974 1277.24,832.307 1288.5,827.5 Z"/></g>
<g><path style="opacity:1" fill="#040404" d="M 1579.5,827.5 C 1599.56,824.429 1611.4,832.763 1615,852.5C 1615.67,891.5 1615.67,930.5 1615,969.5C 1611.96,990.113 1600.12,998.613 1579.5,995C 1572.09,992.592 1566.92,987.758 1564,980.5C 1562.57,975.255 1561.57,969.922 1561,964.5C 1560.33,927.5 1560.33,890.5 1561,853.5C 1562.07,840.974 1568.24,832.307 1579.5,827.5 Z"/></g>
<g><path style="opacity:1" fill="#737373" d="M 1381.5,797.5 C 1381.5,808.167 1381.5,818.833 1381.5,829.5C 1396.17,829.5 1410.83,829.5 1425.5,829.5C 1425.5,894.833 1425.5,960.167 1425.5,1025.5C 1424.5,960.669 1424.17,895.669 1424.5,830.5C 1409.83,830.5 1395.17,830.5 1380.5,830.5C 1380.17,819.321 1380.51,808.321 1381.5,797.5 Z"/></g>
<g><path style="opacity:1" fill="#919191" d="M 1504.5,797.5 C 1505.49,808.321 1505.83,819.321 1505.5,830.5C 1490.5,830.5 1475.5,830.5 1460.5,830.5C 1474.99,829.504 1489.66,829.171 1504.5,829.5C 1504.5,818.833 1504.5,808.167 1504.5,797.5 Z"/></g>
<g><path style="opacity:1" fill="#000000" d="M 965.5,830.5 C 974.173,830.334 982.84,830.5 991.5,831C 1010.81,833.333 1019.47,844.333 1017.5,864C 1017.97,873.334 1016.14,882.167 1012,890.5C 1007.62,895.41 1002.12,898.244 995.5,899C 985.53,900.112 975.53,900.612 965.5,900.5C 965.5,877.167 965.5,853.833 965.5,830.5 Z"/></g>
<g><path style="opacity:1" fill="#892e24" d="M 823.5,838.5 C 823.167,838.5 822.833,838.5 822.5,838.5C 625.999,838.167 429.666,838.5 233.5,839.5C 232.711,839.217 232.044,838.717 231.5,838C 429,837.167 626.334,837.334 823.5,838.5 Z"/></g>
<g><path style="opacity:1" fill="#862e24" d="M 1967.5,838.5 C 2138,837.167 2308.67,837.167 2479.5,838.5C 2479.38,839.107 2479.04,839.44 2478.5,839.5C 2308.33,838.5 2138,838.167 1967.5,838.5 Z"/></g>
<g><path style="opacity:1" fill="#e91d25" d="M 822.5,838.5 C 731.901,894.437 641.568,950.771 551.5,1007.5C 449.722,974.943 355.388,928.11 268.5,867C 256.647,857.97 244.98,848.803 233.5,839.5C 429.666,838.5 625.999,838.167 822.5,838.5 Z"/></g>
<g><path style="opacity:1" fill="#fefefe" d="M 822.5,838.5 C 822.833,838.5 823.167,838.5 823.5,838.5C 838.167,838.5 852.833,838.5 867.5,838.5C 867.5,896.167 867.5,953.833 867.5,1011.5C 841.384,1027.78 815.384,1044.28 789.5,1061C 783.419,1064.71 777.086,1067.87 770.5,1070.5C 695.959,1054.54 622.959,1033.54 551.5,1007.5C 641.568,950.771 731.901,894.437 822.5,838.5 Z"/></g>
<g><path style="opacity:1" fill="#fffefe" d="M 1874.5,838.5 C 1955.27,888.391 2035.94,938.558 2116.5,989C 2127.01,996.03 2137.35,1003.2 2147.5,1010.5C 2146.79,1011.4 2145.79,1011.74 2144.5,1011.5C 2137.71,1011.91 2131.04,1013.08 2124.5,1015C 2081.38,1029.15 2038.05,1042.48 1994.5,1055C 1970.76,1061.6 1946.76,1066.6 1922.5,1070C 1902.2,1056.52 1881.53,1043.69 1860.5,1031.5C 1860.5,967.167 1860.5,902.833 1860.5,838.5C 1865.17,838.5 1869.83,838.5 1874.5,838.5 Z"/></g>
<g><path style="opacity:1" fill="#e91d25" d="M 1874.5,838.5 C 1905.5,838.5 1936.5,838.5 1967.5,838.5C 2138,838.167 2308.33,838.5 2478.5,839.5C 2421.74,884.644 2360.07,922.478 2293.5,953C 2246.18,975.605 2197.52,994.772 2147.5,1010.5C 2137.35,1003.2 2127.01,996.03 2116.5,989C 2035.94,938.558 1955.27,888.391 1874.5,838.5 Z"/></g>
<g><path style="opacity:1" fill="#e81e25" d="M 867.5,1011.5 C 867.5,1032.5 867.5,1053.5 867.5,1074.5C 972.167,1074.5 1076.83,1074.5 1181.5,1074.5C 1181.18,1091.08 1181.51,1107.58 1182.5,1124C 1213.86,1124.98 1245.2,1126.48 1276.5,1128.5C 1277.74,1128.81 1277.74,1129.31 1276.5,1130C 1105.64,1127.89 936.97,1108.06 770.5,1070.5C 777.086,1067.87 783.419,1064.71 789.5,1061C 815.384,1044.28 841.384,1027.78 867.5,1011.5 Z"/></g>
<g><path style="opacity:1" fill="#e92025" d="M 2144.5,1011.5 C 2117.71,1021.93 2090.38,1031.1 2062.5,1039C 1857.93,1095.68 1650.26,1125.52 1439.5,1128.5C 1470.8,1126.25 1502.13,1124.58 1533.5,1123.5C 1533.5,1107.17 1533.5,1090.83 1533.5,1074.5C 1642.5,1074.5 1751.5,1074.5 1860.5,1074.5C 1860.5,1060.17 1860.5,1045.83 1860.5,1031.5C 1881.53,1043.69 1902.2,1056.52 1922.5,1070C 1946.76,1066.6 1970.76,1061.6 1994.5,1055C 2038.05,1042.48 2081.38,1029.15 2124.5,1015C 2131.04,1013.08 2137.71,1011.91 2144.5,1011.5 Z"/></g>
<g><path style="opacity:1" fill="#fefdfd" d="M 1181.5,1074.5 C 1199.84,1074.33 1218.17,1074.5 1236.5,1075C 1240.53,1077.45 1244.86,1079.12 1249.5,1080C 1256.85,1081.12 1264.19,1082.29 1271.5,1083.5C 1273.63,1098.46 1275.3,1113.46 1276.5,1128.5C 1245.2,1126.48 1213.86,1124.98 1182.5,1124C 1181.51,1107.58 1181.18,1091.08 1181.5,1074.5 Z"/></g>
<g><path style="opacity:1" fill="#fefdfd" d="M 1533.5,1074.5 C 1533.5,1090.83 1533.5,1107.17 1533.5,1123.5C 1502.13,1124.58 1470.8,1126.25 1439.5,1128.5C 1439.52,1113.11 1441.19,1097.94 1444.5,1083C 1456.25,1081.99 1467.59,1079.32 1478.5,1075C 1496.83,1074.5 1515.16,1074.33 1533.5,1074.5 Z"/></g>
</svg>
