<?xml version="1.0" encoding="UTF-8"?>
<!DOCTYPE svg PUBLIC "-//W3C//DTD SVG 1.1//EN" "http://www.w3.org/Graphics/SVG/1.1/DTD/svg11.dtd">
<svg xmlns="http://www.w3.org/2000/svg" version="1.1" width="2760px" height="1291px" style="shape-rendering:geometricPrecision; text-rendering:geometricPrecision; image-rendering:optimizeQuality; fill-rule:evenodd; clip-rule:evenodd" xmlns:xlink="http://www.w3.org/1999/xlink">
<g><path style="opacity:0.998" fill="#000000" d="M 1266.5,28.5 C 1479.52,21.4234 1690.85,36.9234 1900.5,75C 2037.78,100.318 2171.12,138.985 2300.5,191C 2394.55,228.833 2481.55,278.166 2561.5,339C 2604.16,372.321 2641.32,410.821 2673,454.5C 2758.03,580.81 2756.03,705.81 2667,829.5C 2635.62,871.885 2599.12,909.385 2557.5,942C 2486.21,996.509 2409.21,1042.18 2326.5,1079C 2203.1,1132.77 2075.44,1173.44 1943.5,1201C 1725.42,1245.87 1505.09,1264.87 1282.5,1258C 1084.08,1252.51 888.75,1225.18 696.5,1176C 570.873,1143.57 450.54,1097.57 335.5,1038C 268.599,1002.74 206.933,960.077 150.5,910C 109.822,873.039 75.9882,830.872 49,783.5C -5.27966,681.745 -3.27966,581.078 55,481.5C 71.307,454.187 90.307,428.853 112,405.5C 169.499,345.637 234.666,296.137 307.5,257C 397.974,208.266 492.307,168.6 590.5,138C 771.947,83.0914 957.28,49.0914 1146.5,36C 1186.65,33.3155 1226.65,30.8155 1266.5,28.5 Z"/></g>
<g><path style="opacity:1" fill="#878584" d="M 1338.5,124.5 C 1341.98,123.357 1345.64,123.19 1349.5,124C 1348.47,124.513 1347.47,125.013 1346.5,125.5C 1344.05,124.527 1341.39,124.194 1338.5,124.5 Z"/></g>
<g><path style="opacity:1" fill="#7b7878" d="M 1397.5,124.5 C 1393.96,124.187 1390.62,124.521 1387.5,125.5C 1386.53,125.013 1385.53,124.513 1384.5,124C 1389.02,123.186 1393.35,123.353 1397.5,124.5 Z"/></g>
<g><path style="opacity:1" fill="#fdfcfc" d="M 1338.5,124.5 C 1341.39,124.194 1344.05,124.527 1346.5,125.5C 1338.88,128.617 1331.88,132.783 1325.5,138C 1312.14,151.029 1299.14,164.362 1286.5,178C 1281.17,182 1275.83,186 1270.5,190C 1268.97,190.923 1267.3,191.423 1265.5,191.5C 1244.87,187.959 1225.21,190.792 1206.5,200C 1200.73,203.277 1195.4,207.11 1190.5,211.5C 1190.5,184.5 1190.5,157.5 1190.5,130.5C 1239.63,127.378 1288.96,125.378 1338.5,124.5 Z"/></g>
<g><path style="opacity:1" fill="#fcfcfc" d="M 1387.5,125.5 C 1390.62,124.521 1393.96,124.187 1397.5,124.5C 1439.85,125.135 1482.18,126.302 1524.5,128C 1530.92,127.871 1536.92,128.705 1542.5,130.5C 1542.26,157.846 1542.59,185.179 1543.5,212.5C 1530.08,199.849 1514.08,192.682 1495.5,191C 1485.17,190.667 1474.83,190.333 1464.5,190C 1458.89,186.724 1453.56,183.057 1448.5,179C 1435.47,166.304 1422.8,153.304 1410.5,140C 1403.48,134.152 1395.82,129.319 1387.5,125.5 Z"/></g>
<g><path style="opacity:1" fill="#e91d25" d="M 1190.5,130.5 C 1190.5,157.5 1190.5,184.5 1190.5,211.5C 1185.83,222.029 1182.66,233.029 1181,244.5C 1179.15,266.457 1177.98,288.457 1177.5,310.5C 1156.17,298.838 1135.17,286.672 1114.5,274C 1104.46,258.082 1094.29,242.248 1084,226.5C 1077.75,218.247 1070.25,211.414 1061.5,206C 1042.74,196.97 1023.08,190.97 1002.5,188C 994.436,187.137 986.436,187.47 978.5,189C 966.428,192.381 960.594,200.214 961,212.5C 967.328,229.644 977.495,244.144 991.5,256C 1004.19,266.684 1018.19,275.351 1033.5,282C 1046.13,283.207 1058.79,283.874 1071.5,284C 1087.76,285.974 1102.76,291.307 1116.5,300C 1137,312.416 1157.33,325.083 1177.5,338C 1146.57,345.588 1115.9,354.088 1085.5,363.5C 988.488,303.331 891.822,242.664 795.5,181.5C 925.878,154.695 1057.54,137.695 1190.5,130.5 Z"/></g>
<g><path style="opacity:1" fill="#e91e25" d="M 1542.5,130.5 C 1675.51,136.751 1807.17,153.417 1937.5,180.5C 1937.5,181.167 1937.17,181.5 1936.5,181.5C 1931.51,180.778 1926.51,180.612 1921.5,181C 1826.6,240.608 1731.93,300.441 1637.5,360.5C 1610.28,352.694 1582.95,345.194 1555.5,338C 1580.17,323 1604.83,308 1629.5,293C 1652.91,283.591 1677.24,279.591 1702.5,281C 1727.17,269.658 1747.67,253.158 1764,231.5C 1780.14,203.643 1772.14,188.976 1740,187.5C 1714.08,188.689 1689.91,195.856 1667.5,209C 1658.96,215.871 1651.46,223.704 1645,232.5C 1636.5,246.167 1628,259.833 1619.5,273.5C 1598.97,286.601 1577.97,298.935 1556.5,310.5C 1555.83,296.833 1555.17,283.167 1554.5,269.5C 1554.26,249.792 1550.59,230.792 1543.5,212.5C 1542.59,185.179 1542.26,157.846 1542.5,130.5 Z"/></g>
<g><path style="opacity:1" fill="#fefefe" d="M 1936.5,181.5 C 1939.91,182.903 1943.58,183.57 1947.5,183.5C 2017.96,196.365 2086.96,214.365 2154.5,237.5C 2064.67,294.917 1974.34,351.584 1883.5,407.5C 1816.16,407.833 1748.83,407.5 1681.5,406.5C 1676,395.5 1670.5,384.5 1665,373.5C 1656.36,367.931 1647.2,363.597 1637.5,360.5C 1731.93,300.441 1826.6,240.608 1921.5,181C 1926.51,180.612 1931.51,180.778 1936.5,181.5 Z"/></g>
<g><path style="opacity:1" fill="#d1604a" d="M 1937.5,180.5 C 1941.08,181.007 1944.42,182.007 1947.5,183.5C 1943.58,183.57 1939.91,182.903 1936.5,181.5C 1937.17,181.5 1937.5,181.167 1937.5,180.5 Z"/></g>
<g><path style="opacity:1" fill="#fefefe" d="M 795.5,181.5 C 891.822,242.664 988.488,303.331 1085.5,363.5C 1079.65,366.68 1073.81,370.013 1068,373.5C 1063.07,385.187 1057.24,396.353 1050.5,407C 977.501,407.5 904.501,407.667 831.5,407.5C 743.567,352.896 655.9,297.896 568.5,242.5C 642.578,217.06 718.245,196.727 795.5,181.5 Z"/></g>
<g><path style="opacity:1" fill="#e91d25" d="M 2154.5,237.5 C 2250.28,268.134 2340.95,309.634 2426.5,362C 2448.06,376.224 2469.06,391.224 2489.5,407C 2287.5,407.5 2085.5,407.667 1883.5,407.5C 1974.34,351.584 2064.67,294.917 2154.5,237.5 Z"/></g>
<g><path style="opacity:1" fill="#e91d25" d="M 568.5,242.5 C 655.9,297.896 743.567,352.896 831.5,407.5C 636.166,407.667 440.833,407.5 245.5,407C 299.005,365.72 356.672,330.72 418.5,302C 467.464,279.513 517.464,259.68 568.5,242.5 Z"/></g>
<g><path style="opacity:1" fill="#48221c" d="M 1554.5,269.5 C 1555.17,283.167 1555.83,296.833 1556.5,310.5C 1556.44,311.043 1556.11,311.376 1555.5,311.5C 1554.5,297.516 1554.17,283.516 1554.5,269.5 Z"/></g>
<g><path style="opacity:1" fill="#f5f5f5" d="M 1648.5,406.5 C 1640.17,407.167 1631.83,407.833 1623.5,408.5C 1614.35,409.046 1605.35,408.212 1596.5,406C 1591.15,403.997 1586.49,400.997 1582.5,397C 1605.23,395.512 1627.23,398.678 1648.5,406.5 Z"/></g>
<g><path style="opacity:1" fill="#f8f8f8" d="M 1131.5,407.5 C 1115.66,407.83 1099.99,407.496 1084.5,406.5C 1103.73,398.574 1123.73,395.741 1144.5,398C 1142.3,404.025 1137.97,407.191 1131.5,407.5 Z"/></g>
<g><path style="opacity:1" fill="#6f6c6c" d="M 1084.5,406.5 C 1099.99,407.496 1115.66,407.83 1131.5,407.5C 1115.34,408.662 1099.01,408.828 1082.5,408C 1083.04,407.283 1083.71,406.783 1084.5,406.5 Z"/></g>
<g><path style="opacity:1" fill="#504e4d" d="M 1648.5,406.5 C 1649.29,406.783 1649.96,407.283 1650.5,408C 1641.51,408.5 1632.51,408.666 1623.5,408.5C 1631.83,407.833 1640.17,407.167 1648.5,406.5 Z"/></g>
<g><path style="opacity:1" fill="#e71c24" d="M 416.5,515.5 C 436.748,512.711 455.081,517.211 471.5,529C 483.275,541.057 489.775,555.557 491,572.5C 491.667,613.167 491.667,653.833 491,694.5C 488.469,725.808 471.969,744.641 441.5,751C 398.1,756.235 373.267,737.401 367,694.5C 366.333,653.833 366.333,613.167 367,572.5C 369.636,541.112 386.136,522.112 416.5,515.5 Z"/></g>
<g><path style="opacity:1" fill="#e71c24" d="M 886.5,515.5 C 906.748,512.711 925.081,517.211 941.5,529C 953.275,541.057 959.775,555.557 961,572.5C 961.667,613.167 961.667,653.833 961,694.5C 958.469,725.808 941.969,744.641 911.5,751C 868.1,756.235 843.267,737.401 837,694.5C 836.333,653.833 836.333,613.167 837,572.5C 839.636,541.112 856.136,522.112 886.5,515.5 Z"/></g>
<g><path style="opacity:1" fill="#fcfcfc" d="M 1862.5,515.5 C 1904.32,512.975 1929.32,532.309 1937.5,573.5C 1926.87,576.476 1916.2,579.476 1905.5,582.5C 1904.35,582.182 1903.52,581.516 1903,580.5C 1900.81,569.623 1895.65,560.457 1887.5,553C 1878.47,548.377 1869.47,548.377 1860.5,553C 1850.32,563.626 1848.82,575.46 1856,588.5C 1859.42,593.923 1863.59,598.756 1868.5,603C 1882.79,613.619 1896.79,624.619 1910.5,636C 1925.52,648.535 1935.02,664.368 1939,683.5C 1941.9,707.168 1934.06,726.335 1915.5,741C 1899.4,750.352 1882.06,753.685 1863.5,751C 1839.52,747.253 1823.02,734.086 1814,711.5C 1811.1,703.869 1808.93,696.035 1807.5,688C 1807.83,687.5 1808.17,687 1808.5,686.5C 1819.5,683.167 1830.5,679.833 1841.5,676.5C 1843.1,685.577 1845.94,694.243 1850,702.5C 1860.46,718.078 1874.29,721.911 1891.5,714C 1904.63,700.855 1905.79,686.688 1895,671.5C 1882.01,657.836 1867.85,645.67 1852.5,635C 1840.96,626.459 1831.13,616.293 1823,604.5C 1811.77,583.141 1811.77,561.808 1823,540.5C 1832.93,526.956 1846.1,518.623 1862.5,515.5 Z"/></g>
<g><path style="opacity:1" fill="#fcfcfc" d="M 2073.5,515.5 C 2115.77,511.299 2140.61,529.966 2148,571.5C 2148.5,578.826 2148.67,586.159 2148.5,593.5C 2136.5,593.5 2124.5,593.5 2112.5,593.5C 2114.07,581.055 2111.91,569.388 2106,558.5C 2098.33,549.946 2088.83,547.113 2077.5,550C 2066.57,555.329 2060.74,564.163 2060,576.5C 2059.33,613.167 2059.33,649.833 2060,686.5C 2061.04,693.314 2062.7,699.981 2065,706.5C 2073.03,717.392 2083.53,720.559 2096.5,716C 2105.64,710.85 2110.8,703.017 2112,692.5C 2113.05,684.198 2113.55,675.865 2113.5,667.5C 2125.5,667.5 2137.5,667.5 2149.5,667.5C 2151.92,691.129 2146.76,712.796 2134,732.5C 2117.51,748.922 2097.67,755.089 2074.5,751C 2043.31,744.126 2026.81,724.626 2025,692.5C 2024.04,649.808 2024.38,607.141 2026,564.5C 2030.93,537.402 2046.77,521.069 2073.5,515.5 Z"/></g>
<g><path style="opacity:1" fill="#fdfdfd" d="M 2227.5,515.5 C 2247.74,512.754 2266.08,517.254 2282.5,529C 2294.28,541.057 2300.78,555.557 2302,572.5C 2302.67,612.833 2302.67,653.167 2302,693.5C 2300.91,710.785 2294.41,725.618 2282.5,738C 2264.41,750.951 2244.41,754.951 2222.5,750C 2199.26,744.423 2185.09,729.923 2180,706.5C 2179.09,702.205 2178.42,697.872 2178,693.5C 2177.33,653.167 2177.33,612.833 2178,572.5C 2180.64,541.112 2197.14,522.112 2227.5,515.5 Z"/></g>
<g><path style="opacity:1" fill="#e81c24" d="M 685.5,519.5 C 708.169,519.333 730.836,519.5 753.5,520C 781.751,523.252 798.918,538.752 805,566.5C 806.134,588.632 806.634,610.799 806.5,633C 806.333,653.167 806.167,673.333 806,693.5C 802.246,724.92 784.746,742.754 753.5,747C 730.836,747.5 708.169,747.667 685.5,747.5C 685.5,671.5 685.5,595.5 685.5,519.5 Z"/></g>
<g><path style="opacity:1" fill="#fdfdfd" d="M 1155.5,519.5 C 1177.5,519.333 1199.5,519.5 1221.5,520C 1263.13,527.031 1280.3,551.531 1273,593.5C 1267.5,611 1256,622.5 1238.5,628C 1267.05,635.039 1281.05,653.206 1280.5,682.5C 1279.97,719.195 1261.64,740.695 1225.5,747C 1202.17,747.5 1178.84,747.667 1155.5,747.5C 1155.5,671.5 1155.5,595.5 1155.5,519.5 Z"/></g>
<g><path style="opacity:1" fill="#fefefe" d="M 1573.5,611.5 C 1589.99,612.497 1606.66,612.83 1623.5,612.5C 1623.5,623.167 1623.5,633.833 1623.5,644.5C 1606.83,644.5 1590.17,644.5 1573.5,644.5C 1573.5,667.833 1573.5,691.167 1573.5,714.5C 1596.17,714.5 1618.83,714.5 1641.5,714.5C 1641.5,725.5 1641.5,736.5 1641.5,747.5C 1607.17,747.5 1572.83,747.5 1538.5,747.5C 1538.5,671.5 1538.5,595.5 1538.5,519.5C 1572.83,519.5 1607.17,519.5 1641.5,519.5C 1641.5,530.5 1641.5,541.5 1641.5,552.5C 1618.83,552.5 1596.17,552.5 1573.5,552.5C 1573.5,572.167 1573.5,591.833 1573.5,611.5 Z"/></g>
<g><path style="opacity:1" fill="#fdfdfd" d="M 1666.5,519.5 C 1689.84,519.333 1713.17,519.5 1736.5,520C 1765.98,525.819 1782.82,543.652 1787,573.5C 1790.26,596.227 1784.76,616.394 1770.5,634C 1766.19,637.824 1761.52,641.157 1756.5,644C 1768.03,678.271 1779.37,712.604 1790.5,747C 1777.84,747.5 1765.17,747.667 1752.5,747.5C 1742.77,716.477 1732.94,685.477 1723,654.5C 1715.92,653.52 1708.75,653.187 1701.5,653.5C 1701.5,684.833 1701.5,716.167 1701.5,747.5C 1689.83,747.5 1678.17,747.5 1666.5,747.5C 1666.5,671.5 1666.5,595.5 1666.5,519.5 Z"/></g>
<g><path style="opacity:1" fill="#e91c24" d="M 239.5,519.5 C 251.167,519.5 262.833,519.5 274.5,519.5C 274.5,584.5 274.5,649.5 274.5,714.5C 297.833,714.5 321.167,714.5 344.5,714.5C 344.5,725.5 344.5,736.5 344.5,747.5C 309.5,747.5 274.5,747.5 239.5,747.5C 239.5,671.5 239.5,595.5 239.5,519.5 Z"/></g>
<g><path style="opacity:1" fill="#e81c24" d="M 615.5,657.5 C 615.461,658.756 615.961,659.756 617,660.5C 617.5,613.501 617.667,566.501 617.5,519.5C 628.5,519.5 639.5,519.5 650.5,519.5C 650.5,595.5 650.5,671.5 650.5,747.5C 639.813,747.832 629.146,747.499 618.5,746.5C 598.236,696.873 578.069,647.207 558,597.5C 557.5,647.499 557.333,697.499 557.5,747.5C 546.167,747.5 534.833,747.5 523.5,747.5C 523.5,671.5 523.5,595.5 523.5,519.5C 535.833,519.5 548.167,519.5 560.5,519.5C 578.827,565.489 597.16,611.489 615.5,657.5 Z"/></g>
<g><path style="opacity:1" fill="#950d13" d="M 617.5,519.5 C 617.667,566.501 617.5,613.501 617,660.5C 615.961,659.756 615.461,658.756 615.5,657.5C 616.167,611.5 616.833,565.5 617.5,519.5 Z"/></g>
<g><path style="opacity:1" fill="#e81c24" d="M 1085.5,657.5 C 1085.46,658.756 1085.96,659.756 1087,660.5C 1087.5,613.501 1087.67,566.501 1087.5,519.5C 1098.5,519.5 1109.5,519.5 1120.5,519.5C 1120.5,595.5 1120.5,671.5 1120.5,747.5C 1109.81,747.832 1099.15,747.499 1088.5,746.5C 1068.24,696.873 1048.07,647.207 1028,597.5C 1027.5,647.499 1027.33,697.499 1027.5,747.5C 1016.17,747.5 1004.83,747.5 993.5,747.5C 993.5,671.5 993.5,595.5 993.5,519.5C 1005.83,519.5 1018.17,519.5 1030.5,519.5C 1048.83,565.489 1067.16,611.489 1085.5,657.5 Z"/></g>
<g><path style="opacity:1" fill="#950d13" d="M 1087.5,519.5 C 1087.67,566.501 1087.5,613.501 1087,660.5C 1085.96,659.756 1085.46,658.756 1085.5,657.5C 1086.17,611.5 1086.83,565.5 1087.5,519.5 Z"/></g>
<g><path style="opacity:1" fill="#fefefe" d="M 1312.5,519.5 C 1324.17,519.5 1335.83,519.5 1347.5,519.5C 1347.5,595.5 1347.5,671.5 1347.5,747.5C 1335.83,747.5 1324.17,747.5 1312.5,747.5C 1312.5,671.5 1312.5,595.5 1312.5,519.5 Z"/></g>
<g><path style="opacity:1" fill="#fdfdfd" d="M 1382.5,519.5 C 1394.17,519.5 1405.83,519.5 1417.5,519.5C 1417.33,550.502 1417.5,581.502 1418,612.5C 1434.75,581.993 1451.25,551.326 1467.5,520.5C 1480.49,519.334 1493.49,519.167 1506.5,520C 1490.3,547.37 1474.3,574.87 1458.5,602.5C 1476.83,650.5 1495.17,698.5 1513.5,746.5C 1500.5,747.833 1487.5,747.833 1474.5,746.5C 1461.77,711.128 1448.93,675.795 1436,640.5C 1429.75,650.67 1423.75,661.003 1418,671.5C 1417.5,696.831 1417.33,722.164 1417.5,747.5C 1405.83,747.5 1394.17,747.5 1382.5,747.5C 1382.5,671.5 1382.5,595.5 1382.5,519.5 Z"/></g>
<g><path style="opacity:1" fill="#fbfbfb" d="M 2334.5,519.5 C 2352.17,519.5 2369.83,519.5 2387.5,519.5C 2397.5,566.519 2407.67,613.519 2418,660.5C 2428.69,613.534 2439.19,566.534 2449.5,519.5C 2466.83,519.5 2484.17,519.5 2501.5,519.5C 2501.5,595.5 2501.5,671.5 2501.5,747.5C 2490.17,747.5 2478.83,747.5 2467.5,747.5C 2467.67,692.832 2467.5,638.166 2467,583.5C 2453.85,638.11 2441.01,692.776 2428.5,747.5C 2421.05,748.108 2413.89,747.441 2407,745.5C 2394.33,691.477 2381.66,637.477 2369,583.5C 2368.5,638.166 2368.33,692.832 2368.5,747.5C 2357.17,747.5 2345.83,747.5 2334.5,747.5C 2334.5,671.5 2334.5,595.5 2334.5,519.5 Z"/></g>
<g><path style="opacity:1" fill="#020000" d="M 420.5,549.5 C 432.057,547.188 441.89,550.188 450,558.5C 452.808,562.778 454.474,567.444 455,572.5C 455.667,613.167 455.667,653.833 455,694.5C 450.991,713.106 439.491,720.606 420.5,717C 413.066,714.565 407.899,709.732 405,702.5C 403.278,696.282 402.278,689.949 402,683.5C 401.333,647.5 401.333,611.5 402,575.5C 403.056,563.011 409.222,554.344 420.5,549.5 Z"/></g>
<g><path style="opacity:1" fill="#020000" d="M 890.5,549.5 C 902.057,547.188 911.89,550.188 920,558.5C 922.808,562.778 924.474,567.444 925,572.5C 925.667,613.167 925.667,653.833 925,694.5C 920.991,713.106 909.491,720.606 890.5,717C 883.066,714.565 877.899,709.732 875,702.5C 873.278,696.282 872.278,689.949 872,683.5C 871.333,647.5 871.333,611.5 872,575.5C 873.056,563.011 879.222,554.344 890.5,549.5 Z"/></g>
<g><path style="opacity:1" fill="#040404" d="M 2231.5,549.5 C 2251.56,546.429 2263.4,554.763 2267,574.5C 2267.67,613.5 2267.67,652.5 2267,691.5C 2263.96,712.113 2252.12,720.613 2231.5,717C 2224.07,714.565 2218.9,709.732 2216,702.5C 2214.28,696.282 2213.28,689.949 2213,683.5C 2212.33,647.5 2212.33,611.5 2213,575.5C 2214.06,563.011 2220.22,554.344 2231.5,549.5 Z"/></g>
<g><path style="opacity:1" fill="#000000" d="M 720.5,552.5 C 730.557,552.135 740.557,552.635 750.5,554C 756.879,555.433 761.713,558.933 765,564.5C 767.672,569.856 769.339,575.523 770,581.5C 771.992,615.835 771.992,650.168 770,684.5C 769.36,693.941 765.86,702.108 759.5,709C 756.618,710.608 753.618,711.941 750.5,713C 740.557,714.365 730.557,714.865 720.5,714.5C 720.5,660.5 720.5,606.5 720.5,552.5 Z"/></g>
<g><path style="opacity:1" fill="#010101" d="M 1190.5,552.5 C 1198.17,552.334 1205.84,552.5 1213.5,553C 1228.93,554.768 1237.27,563.435 1238.5,579C 1237.68,597.151 1228.35,607.818 1210.5,611C 1203.84,611.5 1197.17,611.666 1190.5,611.5C 1190.5,591.833 1190.5,572.167 1190.5,552.5 Z"/></g>
<g><path style="opacity:1" fill="#010101" d="M 1701.5,552.5 C 1741.4,546.564 1756.9,563.23 1748,602.5C 1745.02,613.479 1737.85,619.313 1726.5,620C 1718.17,620.5 1709.84,620.666 1701.5,620.5C 1701.5,597.833 1701.5,575.167 1701.5,552.5 Z"/></g>
<g><path style="opacity:1" fill="#909090" d="M 1573.5,611.5 C 1590.5,611.5 1607.5,611.5 1624.5,611.5C 1624.83,622.679 1624.49,633.679 1623.5,644.5C 1623.5,633.833 1623.5,623.167 1623.5,612.5C 1606.66,612.83 1589.99,612.497 1573.5,611.5 Z"/></g>
<g><path style="opacity:1" fill="#010101" d="M 1190.5,644.5 C 1203.48,643.219 1215.82,645.386 1227.5,651C 1244.65,665.206 1248.15,682.373 1238,702.5C 1232.48,709.345 1225.31,713.178 1216.5,714C 1207.84,714.5 1199.17,714.666 1190.5,714.5C 1190.5,691.167 1190.5,667.833 1190.5,644.5 Z"/></g>
<g><path style="opacity:1" fill="#fdfdfd" d="M 1963.5,710.5 C 1974.5,710.5 1985.5,710.5 1996.5,710.5C 1996.5,722.833 1996.5,735.167 1996.5,747.5C 1985.5,747.5 1974.5,747.5 1963.5,747.5C 1963.5,735.167 1963.5,722.833 1963.5,710.5 Z"/></g>
<g><path style="opacity:1" fill="#892e24" d="M 832.5,866.5 C 832.167,866.5 831.833,866.5 831.5,866.5C 634.999,866.167 438.666,866.5 242.5,867.5C 241.711,867.217 241.044,866.717 240.5,866C 438,865.167 635.334,865.334 832.5,866.5 Z"/></g>
<g><path style="opacity:1" fill="#6c6969" d="M 1190.5,866.5 C 1190.5,866.167 1190.5,865.833 1190.5,865.5C 1199.17,865.5 1207.83,865.5 1216.5,865.5C 1216.5,868.167 1216.5,870.833 1216.5,873.5C 1215.53,871.393 1215.2,869.059 1215.5,866.5C 1207.17,866.5 1198.83,866.5 1190.5,866.5 Z"/></g>
<g><path style="opacity:1" fill="#676565" d="M 1542.5,865.5 C 1542.5,865.833 1542.5,866.167 1542.5,866.5C 1534.17,866.5 1525.83,866.5 1517.5,866.5C 1517.82,873.022 1517.49,879.355 1516.5,885.5C 1516.5,878.833 1516.5,872.167 1516.5,865.5C 1525.17,865.5 1533.83,865.5 1542.5,865.5 Z"/></g>
<g><path style="opacity:1" fill="#862e24" d="M 1976.5,866.5 C 2147,865.167 2317.67,865.167 2488.5,866.5C 2488.38,867.107 2488.04,867.44 2487.5,867.5C 2317.33,866.5 2147,866.167 1976.5,866.5 Z"/></g>
<g><path style="opacity:1" fill="#e91d25" d="M 831.5,866.5 C 740.901,922.437 650.568,978.771 560.5,1035.5C 458.722,1002.94 364.388,956.11 277.5,895C 265.647,885.97 253.98,876.803 242.5,867.5C 438.666,866.5 634.999,866.167 831.5,866.5 Z"/></g>
<g><path style="opacity:1" fill="#fefefe" d="M 831.5,866.5 C 831.833,866.5 832.167,866.5 832.5,866.5C 939.5,866.5 1046.5,866.5 1153.5,866.5C 1034.89,940.141 916.561,1014.31 798.5,1089C 792.419,1092.71 786.086,1095.87 779.5,1098.5C 704.959,1082.54 631.959,1061.54 560.5,1035.5C 650.568,978.771 740.901,922.437 831.5,866.5 Z"/></g>
<g><path style="opacity:1" fill="#e91d25" d="M 1190.5,865.5 C 1190.5,865.833 1190.5,866.167 1190.5,866.5C 1190.33,961.501 1190.5,1056.5 1191,1151.5C 1222.45,1152.97 1253.95,1154.64 1285.5,1156.5C 1286.74,1156.81 1286.74,1157.31 1285.5,1158C 1114.64,1155.89 945.97,1136.06 779.5,1098.5C 786.086,1095.87 792.419,1092.71 798.5,1089C 916.561,1014.31 1034.89,940.141 1153.5,866.5C 1165.78,865.54 1178.12,865.206 1190.5,865.5 Z"/></g>
<g><path style="opacity:1" fill="#fefdfc" d="M 1190.5,866.5 C 1198.83,866.5 1207.17,866.5 1215.5,866.5C 1215.2,869.059 1215.53,871.393 1216.5,873.5C 1216.24,910.277 1220.08,946.61 1228,982.5C 1230.87,1012.48 1233.54,1042.48 1236,1072.5C 1237.23,1080.19 1238.56,1087.85 1240,1095.5C 1242.23,1100.73 1246.06,1104.23 1251.5,1106C 1261.06,1108.44 1270.72,1110.27 1280.5,1111.5C 1282.63,1126.46 1284.3,1141.46 1285.5,1156.5C 1253.95,1154.64 1222.45,1152.97 1191,1151.5C 1190.5,1056.5 1190.33,961.501 1190.5,866.5 Z"/></g>
<g><path style="opacity:1" fill="#fefdfd" d="M 1542.5,866.5 C 1542.5,961.5 1542.5,1056.5 1542.5,1151.5C 1511.13,1152.58 1479.8,1154.25 1448.5,1156.5C 1448.64,1141.37 1450.14,1126.37 1453,1111.5C 1463.23,1109.8 1473.4,1107.63 1483.5,1105C 1489.44,1103.4 1492.94,1099.56 1494,1093.5C 1495.83,1081.19 1497.5,1068.86 1499,1056.5C 1500.64,1015.07 1505.64,974.074 1514,933.5C 1515.5,917.533 1516.33,901.533 1516.5,885.5C 1517.49,879.355 1517.82,873.022 1517.5,866.5C 1525.83,866.5 1534.17,866.5 1542.5,866.5 Z"/></g>
<g><path style="opacity:1" fill="#e96247" d="M 1542.5,865.5 C 1548.69,865.177 1554.69,865.51 1560.5,866.5C 1554.83,866.5 1549.17,866.5 1543.5,866.5C 1543.83,961.668 1543.5,1056.67 1542.5,1151.5C 1542.5,1056.5 1542.5,961.5 1542.5,866.5C 1542.5,866.167 1542.5,865.833 1542.5,865.5 Z"/></g>
<g><path style="opacity:1" fill="#e91e25" d="M 1560.5,866.5 C 1560.83,866.5 1561.17,866.5 1561.5,866.5C 1684.94,943.392 1808.27,1020.56 1931.5,1098C 1955.76,1094.6 1979.76,1089.6 2003.5,1083C 2047.05,1070.48 2090.38,1057.15 2133.5,1043C 2140.04,1041.08 2146.71,1039.91 2153.5,1039.5C 2126.71,1049.93 2099.38,1059.1 2071.5,1067C 1866.92,1123.68 1659.25,1153.52 1448.5,1156.5C 1479.8,1154.25 1511.13,1152.58 1542.5,1151.5C 1543.5,1056.67 1543.83,961.668 1543.5,866.5C 1549.17,866.5 1554.83,866.5 1560.5,866.5 Z"/></g>
<g><path style="opacity:1" fill="#fffefe" d="M 1561.5,866.5 C 1668.83,866.5 1776.17,866.5 1883.5,866.5C 1964.27,916.391 2044.94,966.558 2125.5,1017C 2136.01,1024.03 2146.35,1031.2 2156.5,1038.5C 2155.79,1039.4 2154.79,1039.74 2153.5,1039.5C 2146.71,1039.91 2140.04,1041.08 2133.5,1043C 2090.38,1057.15 2047.05,1070.48 2003.5,1083C 1979.76,1089.6 1955.76,1094.6 1931.5,1098C 1808.27,1020.56 1684.94,943.392 1561.5,866.5 Z"/></g>
<g><path style="opacity:1" fill="#e91d25" d="M 1883.5,866.5 C 1914.5,866.5 1945.5,866.5 1976.5,866.5C 2147,866.167 2317.33,866.5 2487.5,867.5C 2430.74,912.644 2369.07,950.478 2302.5,981C 2255.18,1003.61 2206.52,1022.77 2156.5,1038.5C 2146.35,1031.2 2136.01,1024.03 2125.5,1017C 2044.94,966.558 1964.27,916.391 1883.5,866.5 Z"/></g>
</svg>
