<?xml version="1.0" standalone="no"?>
<!DOCTYPE svg PUBLIC "-//W3C//DTD SVG 20010904//EN"
 "http://www.w3.org/TR/2001/REC-SVG-20010904/DTD/svg10.dtd">
<svg version="1.0" xmlns="http://www.w3.org/2000/svg"
 width="512.000000pt" height="512.000000pt" viewBox="0 0 512.000000 512.000000"
 preserveAspectRatio="xMidYMid meet">
<metadata>
Created by potrace 1.11, written by Peter Selinger 2001-2013
</metadata>
<g transform="translate(0.000000,512.000000) scale(0.100000,-0.100000)"
fill="#000000" stroke="none">
<path d="M480 4781 c-209 -57 -374 -211 -447 -418 l-28 -78 0 -1725 0 -1725
27 -77 c68 -193 203 -329 398 -404 l75 -29 2050 0 2050 0 79 28 c178 63 321
196 387 358 50 124 48 60 48 1859 0 1597 -1 1689 -19 1753 -56 209 -204 367
-420 448 l-65 24 -2035 2 c-1918 2 -2039 1 -2100 -16z m2733 -259 c9 -8 12
-130 11 -554 0 -299 1 -548 3 -554 3 -7 92 -11 286 -11 l282 0 0 554 c0 415 3
557 12 564 12 11 668 14 713 4 14 -3 39 -8 55 -11 17 -3 60 -19 96 -35 156
-72 245 -238 228 -424 -8 -83 -35 -145 -89 -205 -22 -24 -40 -47 -40 -51 0 -4
16 -19 35 -35 132 -105 156 -349 52 -526 -32 -55 -68 -88 -141 -132 -115 -69
-111 -69 -1037 -69 -585 0 -832 3 -841 10 -18 15 -19 1452 -1 1474 9 11 47 14
187 13 105 -1 181 -6 189 -12z m-1643 -702 c77 -21 142 -60 205 -124 102 -101
147 -215 140 -354 -6 -135 -45 -224 -139 -318 -101 -100 -212 -144 -353 -139
-180 7 -332 106 -410 267 -36 73 -45 109 -49 193 -10 218 144 422 363 479 58
16 181 14 243 -4z m2045 -1131 c105 -53 554 -285 640 -331 50 -26 97 -50 105
-54 8 -3 24 -10 35 -16 11 -7 106 -55 210 -109 l190 -97 2 -584 c2 -424 -1
-594 -9 -623 -27 -90 -89 -161 -178 -204 l-55 -26 -1995 0 -1995 0 -55 26
c-70 33 -126 89 -159 159 -24 53 -25 63 -27 253 l-2 197 71 63 c39 34 78 69
87 77 9 8 50 44 90 80 40 36 78 70 84 75 6 6 47 42 90 80 44 39 87 77 96 85 9
8 47 42 84 75 38 33 74 65 80 70 6 6 49 44 96 85 47 41 87 78 90 81 22 24 101
33 143 15 20 -8 226 -141 458 -296 232 -154 425 -280 430 -278 5 2 280 273
611 604 332 330 614 605 628 611 39 17 101 9 155 -18z"/>
<path d="M4197 4162 c-2 -4 -3 -47 -2 -97 l0 -90 129 0 c128 0 128 0 152 28
33 38 33 96 0 134 -24 28 -26 28 -150 30 -69 1 -127 -2 -129 -5z"/>
<path d="M4198 3603 c-2 -4 -4 -51 -4 -103 l1 -95 125 -1 c69 -1 135 2 147 7
38 14 61 63 53 110 -14 75 -31 83 -184 87 -74 2 -136 0 -138 -5z"/>
</g>
</svg>
