<?xml version="1.0" standalone="no"?>
<!DOCTYPE svg PUBLIC "-//W3C//DTD SVG 20010904//EN"
 "http://www.w3.org/TR/2001/REC-SVG-20010904/DTD/svg10.dtd">
<svg version="1.0" xmlns="http://www.w3.org/2000/svg"
 width="512.000000pt" height="512.000000pt" viewBox="0 0 512.000000 512.000000"
 preserveAspectRatio="xMidYMid meet">
<metadata>
Created by potrace 1.11, written by Peter Selinger 2001-2013
</metadata>
<g transform="translate(0.000000,512.000000) scale(0.100000,-0.100000)"
fill="#000000" stroke="none">
<path d="M2 2585 l3 -1180 1305 0 c718 0 1330 3 1360 7 193 27 315 82 430 198
167 166 228 411 171 680 -21 99 -106 218 -212 295 l-49 37 27 21 c80 62 162
174 195 262 23 64 31 216 16 320 -17 119 -76 239 -158 324 -82 86 -146 127
-262 167 -126 44 -206 50 -773 49 l-530 0 -5 -920 -5 -920 -483 0 c-420 0
-483 2 -486 15 -3 8 -4 419 -4 913 1 494 -2 901 -6 905 -4 4 -127 7 -272 7
l-264 0 2 -1180z m2550 646 c117 -39 153 -211 64 -309 -42 -47 -77 -54 -286
-56 -107 -2 -200 -1 -207 1 -14 5 -16 352 -2 369 12 15 383 11 431 -5z m30
-900 c122 -41 159 -239 65 -347 -43 -51 -74 -56 -312 -58 l-220 -1 -2 205 c-1
113 3 207 7 210 19 11 425 4 462 -9z"/>
<path d="M3344 3755 c-2 -5 -3 -536 -2 -1180 l3 -1170 293 0 292 0 1 40 c0 22
1 211 2 420 l2 379 240 2 c271 1 353 14 488 77 116 55 250 169 304 260 37 63
83 169 98 227 41 155 23 367 -44 515 -52 113 -110 186 -226 284 -76 64 -238
129 -365 147 -87 12 -1082 11 -1086 -1z m985 -524 c73 -18 134 -78 155 -153
34 -121 -11 -231 -117 -285 -50 -25 -58 -26 -244 -27 l-192 -2 0 236 c1 129 2
237 4 240 7 11 342 3 394 -9z"/>
</g>
</svg>
